<?xml version="1.0" encoding="utf-8"?>
<svg version="1.1" id="Layer_1" xmlns="http://www.w3.org/2000/svg" xmlns:xlink="http://www.w3.org/1999/xlink" x="0px" y="0px"
	 viewBox="0 0 1432.6 1677.881" enable-background="new 0 0 1432.6 1677.881" xml:space="preserve">
<g>
	<path d="M612.66,225.343C612.875,227.831,614.956,224.134,612.66,225.343L612.66,225.343z"/>
	<path d="M726.228,292.916c-0.311-1.028-2.47-0.424-2.122,0.577C724.447,294.474,726.505,293.846,726.228,292.916z"/>
	<path d="M719.922,295.56c2.412,1.75,3.896,3.898,3.024,6.734c0.322-0.041,1.313-0.152,1.765-0.209
		c0.938-1.642,3.157-0.965,4.153-2.489c1.419-1.233,0.762-3.146,0.321-4.679l-0.07,0.014c0.124,1.091,0.246,2.109,0.297,3.109
		c-1.046,1.648-3.064,2.55-5.281,2.364c-0.032-0.285-0.24-2.179-0.242-2.196C722.722,297.131,721.872,295.497,719.922,295.56z"/>
	<path d="M734.553,301.06c-0.616,0.171-1.441,0.848-1.86,1.777C733.331,304.88,737.005,300.61,734.553,301.06z"/>
	<path d="M426.713,344.228c-1.685,1.215-1.713,3.183-2.374,5.041C426.57,348.955,426.304,346.09,426.713,344.228z"/>
	<path d="M411.491,416.706c-1,0.026-2.124,1.916-0.677,1.978C411.928,418.684,413.478,416.177,411.491,416.706z"/>
	<path d="M771.303,393.316c2.687,0.38,6.121,2.176,6.658,5.128C777.648,398.235,771.377,393.831,771.303,393.316z"/>
	<path d="M411.879,355.563h0.008c0.863-0.404,2.164,0.806,1.668,1.791h-0.008C412.627,357.722,411.415,356.491,411.879,355.563z"/>
	<path d="M1182.631,682.889c-111.68-31.233-165.366-22.509-275.897-45.72c-48.902-10.316-136.59-9.556-137.604-9.498
		c-17.253-12.387-26.361-15.437-45.575-19.332c-1.99-4.309-6.658-5.763-11.288-6.865c52.046-56.638,382.545-47.169,467.089-263.193
		c8.974-23.357,46.54-128.279,24.398-139.518c-16.872-7.733-54.937,29.485-132.576,92.542
		c-134.795,110.132-244.383,187.456-279.25,220.542c-36.225,33.673-56.965,71.625-97.578,90.859c0,0-0.562,0.008-2.449,0.008
		c-3.39-0.949-7.207-1.886-10.255-2.656c1.176-1.724,2.711-5.049,5.985-5.327c0.054,0.171,0.844,2.682,0.964,3.061l0.077-0.015
		c-0.141-1.414-0.377-2.923-0.176-4.378c1.337-2.873,2.917-5.497,4.194-8.22l0.023,0.038c0-0.001,0.092-0.696,0.092-0.696
		l0.574-0.658c4.736,9.636,4.365,1.961,5.885,10.868h0.076c0.084-0.322,0.245-0.972,0.337-1.339
		c7.741-2.156,9.408-3.149,10.408-3.482c0-0.15,0.138-1.532,0.138-1.707c-3.185,1.822-12.161,2.166-15.521-6.138
		c1.546-1.747,2.534-5.29,5.472-4.477h0.015c0.247-0.124,2.825-2.104,3.383-2.885c0,0-1.806-0.122-3.474-0.283
		c0.964-0.245,1.554-0.834,1.745-1.753c0.35,1.128,1.427,1.653,2.235,2.487l-0.023,0.061l0.054-0.023l0.023,0.023l0.015-0.046
		c0.436-0.191,1.27-0.559,1.699-0.758c0.361,0.969,0.566,2.004,0.712,3.031c2.574-1.716,10.134-3.763,12.972-10.86
		c-2.748,1.1-3.684,3.625-6.1,4.523c-0.253-0.176-0.704-0.49-0.941-0.658c0.778-1.445,1.889-3.411,2.793-5.472
		c1.387,0.25,2.8,0.52,3.528,0.666l0.023-0.069c-0.883-0.457-2.387-1.219-2.924-1.5c-0.015-0.584-0.062-1.754-0.077-2.319
		c1.334-0.863,1.196-3.083,1.714-4.538c3.896-0.813,4.1,1.051,6.077,7.087c-0.898,3.684-2.103,5.953-5.227,7.515v0.015
		c-0.046,0.167-0.123,0.502-0.168,0.697c5.344-3.889,4.36-3.836,6.054-8.212v-0.008c2.063-5.788,4.377-4.058,3.092-10.056
		c4.99-1.005,4.832,2.019,8.962-0.046c0.655-1.965-1.808-4.36-3.482-5.572c0.008-0.719,0.023-1.316,0.054-1.867
		c1.5-1.01,2.633-2.395,3.735-3.742c1.58,0.282,2.082,0.375,2.082,0.375c-0.528-3.693-0.354-3.71-0.704-4.898h0.008l-0.015-0.023
		l-0.015-0.054l-0.008,0.008c-0.084-0.168-0.237-0.452-0.329-0.62c0.283-0.153,0.796-0.413,1.485-0.773
		c0.413,0.444,1.148,1.232,1.538,1.638c-0.016,0.519-0.153,3.047-0.153,3.352c1.89,0,1.842-3.156,2.342-4.156
		c-0.5-1-1.441-4.39-4.936-5.954c1.487-1.19,2.151-1.676,2.151-1.676c0-1,0.172-2.941-1.577-4.286
		c0.066-0.314,0.195-0.945,0.276-1.362c1.772-2.464,2.644-5.476,4.607-7.829c4.382,3.12,6.784-8.219,11.419-2.426l0.069-0.031
		c-0.88-2.898-4.904-1.235-5.839-4.102c0.371-0.661,0.327-0.572,0.75-1.332c3.016-0.155,6.405-0.698,8.572-3.008
		c0.502-1.005,2.125-5.118,0.084-6.941c1.207-1.533,2.3-3.278,3.911-4.577c0.009,0.071,0.31,2.039,0.314,2.059
		c0.603-0.775,0.816-1.65,0.421-2.548c5.226-10.852,70.332-66.647,89.749-90.269c44.033-52.125,39.418-96.091,111.377-162.783
		c34.509-32.019,53.541-51.884,71.251-122.88c1.95-8.328,12.495-54.497,7.232-61.279c-2.434-1.217-4.656,1.137-6.344,2.418v0.008
		c-44.881,41.578-211.934,309.002-264.104,388.231c-0.85-0.337-1.714-0.666-2.64-0.995c0.333-8.829,0.251-5.162-0.406-9.85
		c1.209-1.968,2.263-4.742,3.658-6.146c0,0-0.44-1.739-0.796-3.184h-0.077c-0.482,2.648-1.221,4.641-3.283,3.352
		c0,1.953-0.526,3.482-2.426,4.584c-2.913-0.236-0.849-4.388-0.849-5.388l-0.008-0.008c-0.352-0.658-0.704-1.316-1.041-1.952
		c0.28-0.219,1.006-0.799,1.217-0.98c0,0-1.536-0.441-2.258-0.635c2.599-0.176,5.167-0.276,7.646-0.65v-0.069
		c-2.432-0.697-5.058-0.559-7.531-0.765c-0.107-0.132-0.881-1.185-0.949-1.278c-0.123-2.036-0.635-4.003-1.531-5.839
		c0.712-0.827,1.416-1.622,2.196-2.51c2.025,0.423,6.013,1.631,6.605,1.867c-1.187-2.368-3.47-3.064-6.651-3.658
		c-0.427-1.384,0.165-2.63,2.288-2.985c0,0-0.603-1.963-0.604-1.967v-0.015c-1-0.5-1.797-0.652-2.61-1.599
		c1.812-1.161,4.229-2.047,4.018-4.561l-0.069-0.015c-0.628,1.4-2.036,2.893-3.972,2.579c1.573-1.413,1.45-3.647,2.013-5.549
		c0.888-1.631,2.123-2.998,2.855-4.661l-0.054-0.046c-1.393,1.125-2.648,2.487-3.735,4.064c-0.319-0.102-0.726-0.24-1.416-0.444
		c0.152-0.089,1.259-0.724,1.401-0.819c-0.337-0.27-1.785-1.309-2.893-2.028c-0.651-0.873-1.225-1.676-1.753-2.449
		c-0.712-2.143-2.931-2.878-3.895-3.107c-0.176-0.719-0.398-1.668-0.589-2.617c1.512-0.324,1.88-0.413,3.023-0.413
		c1.898-1.898,3.409-5.637,3.015-10.355c-1.491,1.676-0.72,4.558-1.569,6.635l-0.605-0.168c0.148-1.819-0.796-3.414-1.286-4.577
		c0.045-0.849,0.398-2.01,0.643-2.855c1.931,0.255,3.872,0.637,5.878,0.849c0.021,0.016,0.405,0.31,0.429,0.322
		c7.095,0,9.146-9.84,2.64-11.901c-1.783-0.79-3.9,0.367-5.327,0.367v0.077c2.113-0.302,5.203,0.306,7.5,1.974
		c0.987,1.867,0.023,3.582-0.964,5.044c-2.715,0.746-11.058,0.65-12.559-2.35c1.078-0.472,3.589-1.561,3.589-1.561l-0.168-0.344
		c0.011-0.016,1.698-2.432,1.707-2.449c0-7.996-2.553-7.133-4.883-9.651c-0.163-2.888-0.555-6.643-3.536-6.643
		c1.381,2.42,2.29,3.888,2.694,5.648c-0.037,0.037-0.987,0.966-1.026,1.003c-1.448-1.628-2.813-3.273-4.783-4.102
		c-0.318-1.516,0.021-3.128-0.582-4.577c0.857-2.005,1.753-4.661,1.071-7.439c1.255-1.156,2.656-2.732,2.549-4.768
		c1.102-0.429,2.235-0.773,3.574-1.163c1.463,3.031,1.653,6.517,3.054,9.566l0.069-0.015c-0.099-3.283-1.003-6.72-2.694-10.225
		l0.008-0.015l-0.015-0.008l-0.031-0.054l-0.015,0.031c-0.852-0.531-1.704-1.035-2.556-1.531c0.665-5.343-1.84-7.647-8.656-3.926
		c-0.12-0.347-1.066-3.104-1.163-3.429l-0.628,0.145c-1.133-0.459-2.158-1.255-3.115-2.434c0.487-1.021,1.144-2.179,1.714-3.161
		c-0.519-0.065-3.01-0.24-3.543-0.275c-1.611-2.912-1.444-3.859-1.944-4.86c-1.392-1.392-1.991-2.086-2.878-2.395
		c0.2-2.064-0.619-4.193-2.48-5.786c-0.081,0.808-0.074,3.051,0.168,5.258c-0.36,0.092-1.01,0.276-1.362,0.375
		c-0.974-2.107-2.516-3.823-3.276-5.939c1.293,0,1.945,0.369,2.924,0.957c0.07-0.174,0.57-1.158,0.689-1.355
		c-1.653-0.552-3.797-0.607-5.02-2.242c0,0-0.098,0.098-1.959,1.615c-0.651-0.83-1.638-2.151-1.638-2.151s-1.653,1.008-2.334,1.439
		c0-0.189,0.006-1.579,0.023-1.768c1.438,0.221,2.998,0.158,4.416-0.1c-1-0.777-4.115-2.545-5.028-5.985l0.092-0.375l1.186,0.283
		c0-2.833-3.771-0.038-5.434-5.028c2.951-1.476,4.659-1.691,7.577-7.561l-0.168-0.459c2.228-6.368-1.156-12.314-9.237-12.314
		l-0.008,0.069c4.236,1.29,11.156,1.974,8.61,10.301c0,1-1.228,3.926-3.765,6.406c-1.423,0.582-2.908,0.911-4.691,1.217
		c0.501-0.913,0.243-1.938-0.015-2.969c0.948-0.811,1.451-1.377,2.166-2.013c-0.242,0-1.217,0.003-1.446-0.008
		c-1.038-1.842-2.541-4.309-2.541-4.309s-0.482,0.216-1.638,0.773c-0.025-0.034-1.233-1.631-1.263-1.661
		c-0.074,0-2.268,0.288-2.342,0.298c0.112,0.197,1.266,1.87,1.408,2.074c-0.016,0.012-0.375,0.254-0.459,0.321
		c-0.528-0.084-1.538-0.245-2.066-0.329c-0.029-0.078-0.712-1.873-0.735-1.952c0,0-1.204,1.292-1.975,2.166l-0.849-0.023
		c1.663-7.068,0.766-4.749,4.515-9.023l-0.054-0.054c-5.667,4.363-3.889,4.788-5.633,8.702c-1.168-0.519-3.111-0.314-3.429-1.791
		c0.19-1.532,0.706-2.995,1.171-4.454c1.081,0.095,2.107,0.255,3.107,0.176c1.832-0.919,0.411-2.98,0.023-4.27l-0.008,0.015
		c-1.003-2.199-2.59-4.086-3.872-6.092c-0.009-1.429,0.717-2.549,1.867-4.684c-1.905,1.025-1.642,3.673-3.735,4.171l0.13-0.796
		c-0.676-0.169-2.755-0.534-4.117-0.666c-0.501-0.831-1.622-2.747-1.622-2.747c-0.336,1.232-0.729,2.644-0.949,3.452
		c-1.423-0.643-2.985-1.094-4.638-1.339c-0.168-1.026-0.314-1.959-0.452-2.847c1.482-1.067,2.95-1.937,4.026-2.472
		c-0.772-1.544-2.71-1.405-4.393-1.079l-0.015,0.008c-0.703,0.703-2.004,3.37-2.472,4.248c-0.302-0.116-1.544-0.631-1.569-0.643
		c-0.017,0.035-0.349,0.627-0.551,0.964c-0.84-1.245-1.837-2.213-2.656-3.375c-0.114-1.228,0.534-2.403,0.804-3.528l-0.061-0.031
		c-0.788,0.872-1.056,1.99-1.278,3.161c-1.591,0.513-2.938-0.453-3.452-2.051v-0.015c-0.001,0-4.851-2.418-4.852-2.418
		c0,0-5.303,1.852-9.268,1.852c0,0-0.561,0.653-0.758,0.872c-0.283-0.184-0.811-0.536-1.102-0.719
		c0.009-0.066,0.191-1.237,0.191-1.278l-1.906-0.13c0.022,0.044,0.575,1.685,0.589,1.73c-1.217-0.138-2.143-1.071-2.533-2.571
		c0.495-0.283,1.318-0.737,1.799-1.026c0.973,0.428,1.837,0.727,1.837,0.727c0.115-0.172,1.045-1.35,1.171-1.515
		c1,0.384,2.038,0.323,4.071,0.138c-1.842-1.61-4.455-1.646-5.793-1.263l0.367,0.597c-0.218-0.031-1.691-0.26-1.936-0.298
		c0.807-1.404,2.1-2.585,1.607-4.309c-0.605,0.404-3.067,3.004-3.536,3.475l0.276,0.329c-0.77,1.284-1.302,2.795-2.832,3.169
		c-0.212-0.896-0.398-2.167-0.398-4.186c-0.148-0.03-2.428-0.16-2.579-0.168c-1.809-0.31-2.547-2.805-4.378-2.717
		c-3.077-2.04-6.809-0.744-10.072-0.98c-2.896-1.629-6.599-2.391-7.653,0.781c0,0,1.867,0.15,4.5,0.383
		c-0.035,1.889-0.509,3.65-0.758,5.663l-0.39,0.337c-3.064-2.978-3.228-4.541-3.628-5.541c-0.357,0.089-3.099,0.877-3.528,1.003
		c-0.681-0.605-1.355-1.278-2.074-2.059c0.995-0.765,1.982-1.538,2.725-2.128l0.421,0.237c4.692-4.702-1.289-12.713-5.763-14.549
		l-0.038,0.054c2.099,2.322,4.831,4.667,6.436,7.691c-2.367,4.797-3.352,6.253-3.352,6.253c-1.247,0.807-2.145,1.622-3.39,1.737
		c-1.363,0.321-3.183-0.066-4.125,1.347l-0.306-0.054c-0.838-0.829-1.855-1.402-2.839-2.059c1.995,0.022,2.237,0.444,3.237,0.941
		c0.704-0.841,1.477-1.76,1.477-1.76c-1.658-0.207-3.76-0.225-5.434-0.168c-0.482-0.498-1.026-1.026-1.645-1.607
		c-0.043-0.244-0.18-0.85-0.245-1.24l-0.008-0.015c-2.147-1.06-3.571-2.935-2.908-5.273c1.622,1.65,4.476,2.372,4.202,5.112
		c0.385-0.24,1.248-0.743,2.227-1.27c-0.207-0.03-1.424-0.194-1.776-0.237c-0.721-2.861-3.929-3.559-5.962-5.204
		c-0.013-0.018-1.086-1.568-1.102-1.584c-2.844,0-7.553,0.465-8.824,3.008c0.041,0.122,0.713,1.651,0.765,1.768l-0.444,0.115
		l-0.214,0.597c-1.225,0.383-2.258,0.513-3.23,0.398l-0.161-0.589c-0.542,0.217-3.954,1.653-4.492,1.883
		c-1.605-1.438-3.852-1.224-5.327-1.224l0.352,0.826c-1.275,0.623-1.379,0.716-2.227,1.14v0.008
		c-1.126,2.346-3.066,4.262-3.26,6.911c-1.777-0.39-3.992-0.383-4.691-2.304c0.069-4.117,5.074-4.362,9.322-12.857
		c-1.215-0.812-2.555-1.526-4.041-1.309l-0.008,0.008c-1.081,0.552-1.413,1.359-2.204,2.151l0.008,0.543
		c-0.649,1.093-1.7,2.062-2.258,3.23c-2.457,0.237-4.431,1.814-5.87,3.176l-0.015,0.008l-0.046,0.49
		c-1.554,0.857-2.992,1.469-4.408,1.883c-2.515-0.374-4.006-0.212-6.834-0.819c1.665,2.034,4.999,1.682,5.793,4.592
		c0.045-0.09,0.53-0.9,0.582-0.987c0.086,0.046,1.153,0.615,1.24,0.666c-0.662,1.092-0.417,2.39-0.643,3.589
		c-1.188-0.415-2.367-0.678-3.367-0.957c-1.208-1.925-3.383-0.077-5.128-0.077c1.172-1.38,2.1-2.181,2.908-3.697
		c-2.082,1.251-4.308,2.456-4.416,4.424c-1.286,1.485-2.61,3.092-3.421,4.959l-0.275,0.291c-0.628-1.287-2.158-1.325-3.383-1.776
		c0.909-1.02,2.323-0.741,3.574-0.88c-1.822-0.796-3.181-0.724-5.403-0.49c-0.474-0.505-0.934-1.033-1.416-1.607
		c1.724-0.99,3.433-1.67,5.174-2.648l-0.023-0.069c-2.143,0.337-4.209,1.102-6.146,2.281c-2.791-7.461-11.549-8.878-15.368-7.255
		l0.023,0.069c4.464-0.894,8.89,1.343,12.842,3.199c0.918,1.293,1.959,2.763,2.219,4.515c-0.452,0.314-1.401,0.972-1.89,1.309
		c-3.489-0.889-5.736,2.872-8.464,4.225c0.353-1,0.742-2.407,1.546-3.513c1-0.572,2.916-0.186,2.916-1.599
		c-0.481,0-3.429,0.432-3.911,0.505c-1.258-0.85-1.837-1.247-1.837-1.247l-0.413,0.099c-1.439-1.301-3.069-2.617-5.135-4.148
		c0.069-0.36,0.191-1.041,0.26-1.362l-0.069-0.023c-1.214,2.328-4.017-0.383-5.663-0.589c0,0,0.057,0.159,0.23,0.62h0.015
		c2.158,0.888,4.416,1.883,6.23,3.498c-0.691,2.293-0.986,5.19-2.74,7.217c-1.908-0.507-0.843-2.76-0.987-4.056
		c-1.297,0.927-2.213,2.085-2.089,3.681c-1.36,0.606-2.705,1.311-3.827,1.982c0.099,0.131,1.077,1.28,1.186,1.408
		c-0.468,1.059-1.148,2.748-1.148,2.748c0.092,0.092,1.342,1.138,1.439,1.224c0,0,2.393-0.459,2.395-0.459l-0.069-0.26
		c0.475-0.306,1.393-0.888,1.906-1.202l0.069,0.122v0.008c0.017,0.026,0.012,0.018,0.038,0.061h0.008
		c0.551,0.704,1.11,1.408,1.599,2.028c-0.053,0.031-0.833,0.481-1.339,0.781c-1.24-0.054-2.64-0.023-3.643,0.918
		c-1.297-0.704-2.981-1.171-4.385-0.819c0,0.036,0.038,0.946,0.038,1.209c-2.889,1.334-2.306,1.234-3.306,1.982
		c1.638,1.23,2.672,0.876,4.691,0.245c-0.46,0.788-0.774,1.565-1.133,2.396c-1.36-0.327-4.54-1.14-6.069-1.14v0.008
		c-1.167,0.345-2.389,1.051-3.605,1.332c2.017-3.217,2.132-3.997,2.633-4.998l-0.796-0.038c-0.733,2.952-2.249,5.271-4.929,6.972
		c-1.664-1.42-4.786-2.65-5.786-2.901l0.52-0.291c-0.107-0.003-2.939-0.069-3.046-0.069v0.008c-2.305,0.13-2.288,3.178-2.288,5.74
		c1.021,0.341,2.329,0.953,6.498,1.194c-0.39,0.383-0.735,0.727-1.033,1.056c-6.071,3.903,0.043,0.781-10.737,0.781
		c-1.406,1.406-4.776,2.924-5.074,6.031h-0.008v0.077h0.008c0,0.001,0.122,0.734,0.122,0.735c-0.889,1.612-0.512,3.487-0.406,5.028
		c-0.98,1.171-1.867,2.472-2.64,3.872c-0.658,0.436-1.27,0.918-1.821,1.431c0.23-2.334-0.597-4.546-1.546-6.796l-0.069,0.023
		c0.412,2.336,0.79,5.148,0.658,7.462c-2.266,0.436-2.088,3.103-2.832,4.783c-0.763-0.921-1.281-1.631-1.906-2.533l0.138,3.298
		c-1.431,0.658-2.457,1.27-3.322,1.99l0.031,0.069c1.287-0.271,2.525-1.495,3.773-0.865c0.808,2.414-2.254,2.682-3.674,3.949
		c-0.638-1.138-0.781-3.092-2.395-3.092c0,0,0.487,2.145,0.911,4.622c-2.475,0.202-4.485,1.772-6.781,2.441
		c-0.903-1.293-3.528-5.602-0.429-8.503l-0.038-0.054c-3.985,1.608-3.217,7.119-0.926,9.98c-1.971-0.028-3.854-0.299-5.709,0.061
		l-0.008,0.008c-2.404,1.221-4.007,2.423-4.691,3.107c-2.219,3.995-2.755,7.875-1.569,11.227c-1.179,0.857-2.189,1.645-3.069,2.395
		l0.038,0.061c1.25-0.417,2.4-1.003,3.651-1.255c1.597,1.183,1.995,2.12,4.072,2.862c-0.463-0.618-1.779-2.064-2.296-2.633
		c0.451-0.241,1.056-0.593,1.485-0.827c0,0-1.698-0.546-1.982-0.635c-0.742-3.911,0.406-7.73,1.538-10.998
		c4.988-3.436,2.1-1.975,8.503-2.411c-0.582,1.003-0.926,2.227-1.048,3.75l0.069,0.015c0.528-0.972,1.033-2.036,1.577-3.352
		c2.647,0.429,4.253,3.631,7.286,2.763c0.038,0.39,0.115,1.102,0.161,1.454c-0.773,0.926-1.569,1.837-2.372,2.717
		c-1.256-0.047-3.194-0.263-4.936-0.122c-2.316,1.158-3.781,2.043-3.781,2.043c0,0.136-0.067,2.743-0.099,3.559l0.069,0.015
		c1.12-2.494-0.146-5.26,9.337-4.171c-0.084,2.304-1.133,4.24-3.038,5.602l-1.615,0.52h-0.023c-0.024,0.073-0.359,3.107-0.367,3.184
		c-0.414,0.048-1.901,0.199-1.959,0.207l0.015,0.008c-2.87,0.436-4.975,1.86-5.947,4.018c-2.126,1.754-2.625,2.151-2.625,2.151
		c0,0.944,0.111,1.401-1.156,1.952c-1.517-2.161-1.032-4.985-1.867-7.378l-0.069,0.015c-0.16,2.275,0.306,4.415,0.222,6.697
		c-1.551,0.487-2.239,2.581-3.918,2.418c-3.051-8.224-0.697-6.691-0.061-11.778c-1.791,0.672-1.769,2.447-2.327,3.911l-0.008,0.008
		c-1.113,5.193,1.298,9.479,2.74,10.722c-0.104,0.051-8.692,4.383-9.337,4.929c1.826-0.323,3.341-1.511,5.074-2.059
		c-3.478,7.759-6.109,7.861-3.85,10.294c-1.14,0.467-2.288,0.865-3.559,1.286h-0.015c-0.5,1-2.405,3.671-1.324,8.304l-0.696-0.452
		l-0.214,1.194c-1.623-0.695-3.69-0.972-5.388-0.972c1.616,1.119,4.03,2.114,5.862,1.255c0.056,0.026,1.144,0.503,1.148,0.505
		c0.077,2.724,1.523,4.944,3.88,5.947c-0.941,0.566-1.982,1.37-1.929,2.648c-0.413,1.768-0.406,3.681,0.008,5.694
		c-0.029,0.076-0.507,1.288-0.566,1.423c-2.429-2.572-3.405-6.658-6.827-8.204C408.591,356.196,182.637,2.284,188.352,41.537
		c-0.041,14.158,25.309,105.07,62.687,150.867c19.229,24.225,43.69,44.57,61.669,69.996
		c40.674,57.386,45.249,95.689,107.849,160.089c1.01,0.941,1.63,2.196,1.806,3.635c-5.369,0.079-8.361-0.258-11.832-2.464
		c0.001,0.004,0.237,0.949,0.237,0.949c1,1,4.948,2.954,8.725,2.816c-6.562,7.001-4.478,8.665-8.327,10.737
		c-1.322,0.156-2.771,0.15-3.819,0.176c-2.487-1.578-3.6-2.922-4.844-4.538c0.137,2.189,1.461,3.828,3.314,4.783
		c9.53,4.941,10.699-12.772,17.457-10.079c0.339,1.919,1.614,3.437,2.663,4.929c-1.051,1.758-1.596,3.752-2.304,6.23
		c-0.855,0.973-2.286,1.438-3.176,2.449c-0.057-0.014-1.192-0.306-1.232-0.314c-0.173,0.865-0.544,1.844-1.087,2.74
		c-1.537-0.989-2.621-2.526-3.949-3.727l-0.008-0.015c-1.268,0-2.337,1.106-3.337,1.607c0.335,1.004,1.596,4.884,1.997,6.49
		c-2.264,1.132-4.035,2.059-5.969,2.992C383.772,435.745,132.7,197.674,131.696,196.744c-10.483-9.698-41.694-39.246-44.756-22.822
		c-5.889,27.472,45.414,144.492,68.756,182.261c78.014,126.235,269.746,178.115,327.556,207.554c0,0.231-0.028,1.036-0.038,1.247
		c-1.903,1.012-0.365,4.37-3.008,4.37c0,1.72-0.187,4.345,1.179,6.452l-0.008,0.008c1.033,1.033,1.855,2.638,3.819,3.291
		c-0.839-1.885-1.321-2.416-3.214-4.431c0.699-1.779-0.625-7.641,4.929-9.161c2.334,1.922,3.977,1.887,6.092,3.367
		c-0.497,1.753-1.102,3.918,0.475,5.38l0.26,0.804l-0.337,0.612c-0.368-0.041-1.043-0.106-1.048-0.107l-0.008-0.015l-0.023,0.008
		l-0.054-0.008l0.015,0.031c-2.125,1.262-2.871,3.909-4.339,5.38c0.909,1.359,2.523,3.987,4.148,3.987
		c1.163-1.163,1.78-4.031,3.995-4.959c1.148,0.742,2.418,1.454,4.003,2.235c-0.582,1.668-0.681,3.436-0.696,5.097l0.069,0.015
		c0.505-1.431,0.88-3.046,1.148-4.936c1.722,0.321,3.184,0.582,4.676,0.765c0.395,0.505,1.173,1.494,1.408,1.799
		c-9.108,3.382,1.602,2.594-12.184,2.594l-0.015,0.008c-0.021,0.019-1.347,1.209-1.347,1.209c0.848,0.85,2.917,2.049,4.492,2.304
		c0.075,0.034,0.975,0.443,1.186,0.543c-0.429,0.528-0.842,1.056-1.194,1.515c-8.845,2.268-6.323,4.872-12.857,6.138
		c-9.781,1.898-19.63,6.39-29.273,13.362c-32.962-2.022-50.604-2.255-75.261,1.967c-62.546,10.725-76.897,4.475-136.648,10.722
		c-106.471,11.155-217.279,76.385-209.881,91.18c9.259,11.827,168.818,26.16,332.493-47.901
		c26.232-11.784,30.481-16.542,66.896-29.87c0,0-8.357,27.901-8.357,27.904c-120.088,50.81-122.479,44.819-179.054,140.819
		c-19.068,33.304-39.285,69.193-12.559,85.8c-29.119,0.777-104.423,20.935-115.402,26.442v0.008
		c-6.566,16.705,17.738,8.479,22.248,8.089c-32.332,39.053-5.173,44.582,2.311,18.766c2.508-2.011,4.68-4.365,7.194-6.628
		c-3.666,14.529,1.597,25.313,3.092,26.817c12.493,7.555,7.086-15.988,7.018-17.541c7.413-11.902,4.515-13.635,8.342-14.135
		c-8.784,42.903,17.984,30.319,8.686,17.028c1.722-2.985,3.031-6.207,3.873-9.597c2.39-3.254,23.451-5.93,24.452-6.199
		c-0.074,8.962,10.662,12.933,18.712,8.901c10.112-5.491,15.707-2.782,22.921-4.378l0.008-0.008
		c16.035-8.157,7-11.284,30.659-22.324c14.079-6.535,36.485-22.803,60.391-34.279c1.455-0.111,96.153-26.813,139.288-96.591
		c0.671,3.276-0.075,6.676-0.145,10.079c-9.698,109.612-7.755,149.774-102.468,252.31c-8.366,9.068-12.924,11.293,10.332,24.796
		c0,0-0.556,1.92-0.712,2.48c-1.645,0.582-2.38,2.128-2.87,3.582c-1.658-1.137-2.948,1.717-4.186,2.709l0.574,0.421
		c-1.071,1.316-2.357,2.48-3.597,3.597l0.046,0.061c1.262-0.946,2.228-1.807,3.467-2.204c-0.153,1.316-0.321,2.556-0.497,3.781
		c-1.194,0.773-2.151,1.271-3.107,1.63c-0.513-0.513-1.033-1.018-1.546-1.5l-0.054,0.038c0.587,1.638,1.166,2.528,1.737,3.528
		c0.93-1.394,2.183-2.295,3.566-2.702c0.926,0.704,1.883,1.408,2.77,2.059c-0.015,0.949-0.031,2.02-0.038,3.099
		c-0.224,0.318-1.198,1.717-1.401,2.036c2.477-0.825,4.319,1.009,5.005,3.528c0.45-0.751,0.763-1.495,0.941-2.403
		c1.32-1.177,2.963-2.126,4.209-0.872c2.558,1.27,2.012,4.803-0.145,6.176l0.031,0.069c2.212-0.543,4.102-0.115,5.625,1.27
		c0.455,1,0.125,2.587,1.577,2.587c0,0,0.076-1.411,0.161-2.855c1.287-0.761,1.609-0.962,2.709-1.607
		c4.618,2.107,2.947,2.359,3.375,5.036c-1.469,1.099-1.817,1.631-2.25,2.411c1.148-0.229,2.384-0.714,3.452-1.186
		c0.911,0.513,1.852,1.079,2.648,1.561c0.347,1.175-0.116,3.177,1.622,3.467c0-0.223-0.156-3.55-0.168-3.788
		c0.934-0.681,1.852-1.332,2.725-1.936c0.934,0.497,1.875,0.995,2.824,1.492c0.185,1,0.541,2.163,0.452,3.406
		c-0.857,1.485-2.342,2.25-3.781,1.959l-0.023,0.069c1.14,0.533,1.155,0.562,2.02,0.995l0.023-0.008
		c1-0.684,2.884-2.136,3.941-1.079c2,0.55,1.727,2.941,1.959,4.569l0.008,0.015c0.778,0.778,4.386,2.437,4.875,2.763
		c0.096-0.144,2.189-2.087,2.319-2.204c0.773,0.36,1.691,0.796,2.617,1.247c0.191,1.599,0.176,3.344-0.031,5.503l-0.903,0.061
		l-0.015,0.008c-1.003,1.003-6.847,12.004-6.436,13.646h0.023c0.62,0.184,1.286,0.398,2.028,0.658l-0.023,0.023
		c1.328,0.111,2.978-0.505,4.202-1.048c2.788,1.722,2.652,1.24,3.827,3.589c0.2,0.1,1.053,0.469,1.202,0.543
		c0.027-0.187,0.185-1.928,0.207-2.204c1.094-0.597,2.174-1.202,3.26-1.799c0.903,0.498,1.875,1.041,2.885,1.623
		c-0.228,3.873-0.245,3.903-0.245,3.903c1,0.334,1.37,0.505,3.635,0.811l0.031-0.069c-0.719-0.505-1.401-0.964-2.066-1.4
		c-0.008-1.171-0.015-2.158-0.015-3.161c1.095-0.702,2.141-1.705,3.452-1.944c1.167,0.392,2.306,1.048,3.452,1.638
		c0.031,1.339,0.023,2.671,0.015,3.681c-1.597,0.757-3.501,1.492-4.247,1.722c1.615,0.577,3.672,0.412,5.35-0.796
		c1.071,0.505,2.135,1.048,3.161,1.615c0.555,0.833,0.751,1.563,1.753,1.73c0-4.331,7.273-5.104,6.934,0.283
		c-0.011,0.157-0.073,1.06-0.023,1.209c0.863,0.429,3.185,0.608,4.278,0.643l0.008-0.076c-0.865-0.207-1.707-0.39-2.495-0.536
		c-0.168-1.232-0.283-2.48-0.352-3.811c1.172-0.659,2.204-1.736,3.582-1.913c1.019,0.352,2.378,1.05,3.314,1.577
		c0.033,1.183,0.081,2.158,0.015,3.092c-0.771,0.732-2.154,1.745-2.809,2.617c1.347,0,2.979-0.77,4.026-1.278
		c1.982,0.877,3.531,2.341,4.531,3.008c0.833-2.915,4.311-3.64,5.839-2.112c1.682,0,0.544,3.419,2.579,3.674
		c-0.634-1.482-0.157-3.563,2.464-5.219c1.14,0.383,2.258,0.987,3.314,1.806c-0.015,0.282-0.199,4.058-0.199,4.286l1.148,0.207
		c-0.143-1-0.686-4.176,0.275-6.1c-1.904-0.271-4.003-0.563-4.003-2.816h-0.008c-0.638-2.24,1.727-4.493,3.903-4.125
		c7.455,92.538-37.201,114.542,32.687,190.297c5.25,5.594,8.801,10.6,11.181,15.743c2.801,21.557-9.719,63.039-10.362,80.458
		c-1.604,39.116,7.237,53.764,17.365,82.976c7.637,21.767,7.094,50.507,15.008,47.741c7.672-2.282,25.633-24.456,34.11-46.784
		c22.55-60.526,9.639-105.853,10.485-152.061c-0.564-23.875,1.504-53.323-15.934-63.713c1.625-35.181-3.89-42.442-6.36-51.804
		c0.254-1.01,13.034-57.411,13.11-58.937c0.413-2.887-3.12-4.957-1.584-7.737c2.721-9.241,4.353-14.424,6.49-21.942l1.393,0.291
		c-0.541,1.19-0.697,2.533-0.536,3.498c1.385-0.693,1.23-2.333,1.515-3.505c1-0.348,2.372-1.23,3.827-0.643
		c0.732,0.607,1.393,1.262,2.074,1.921c0.002,0.039,0.135,2.639,0.138,2.656c1.363-0.273,1.154-1.903,2.166-2.426
		c0.888-0.421,1.821-0.712,2.778-0.865c2.001,0.865,2.834,2.895,3.635,3.896c1.064-1.33,2.204-2.333,3.98-2.526
		c1.213,0.328,2.039,1.367,3.023,2.112c-0.194,0.518-0.37,0.927-0.582,1.5c-5.209,0.296-0.692,13.699-1.362,36.781
		c0.385,38.933-0.363,58.009,38.572,103.303c27.166,31.63,2.178,5.7,56.656,88.792c19.985,30.03,23.347,48.887,25.255,82.601
		c1.065,16.348,3.257,33.665,1.247,50.511c-4.46,39.072-28.855,94.896-66.254,101.428c-3.235,0.664-2.99,5.332-2.426,6.459
		c8.242,8.241,90.034,10.287,126.262-49.86c18.598-30.044,6.623-50.934,16.959-101.083c12.202-59.943,7.845-70.302-23.602-81.131
		c-16.002-34.602-1.727-103.243-56.97-158.628c-4.088-3.878-7.671-8.24-12.72-10.477c1.081-27.979,11.927-39.744,5.579-44.901
		c0,0,11.893-45.688,11.893-45.69c2.279-1.018,4.316,1.304,5.158,3.406c1.76-1.319,4.564-1.302,5.564-1.469
		c-0.446-2.23-0.706-4.796,1.699-5.166l0.008-0.008c2.2-1.205,4.509,1.273,5.242,3.115c3.438-2.063,4.855-1.885,5.855-2.135
		c0-1.794-0.714-4.572,1.653-5.059c1.052-1.052,4.015-0.293,5.311,2.311c1.634-0.817,6.092-2.441,6.092-2.441
		c0.333-1-0.366-2.313,0.566-4.163c1.104-0.686,2.377-1.075,3.513-1.454c0.052,0.042,3,2.41,3.015,2.426
		c0,0,1.349-0.613,4.929-2.403v-0.008c0.555-1.464,0.023-3.851,2.005-4.202c2.466-1.233,3.291,1.211,5.503,0.934
		c-0.641-0.897-1.999-1.973-2.893-2.617c0-1.125,0.008-2.196,0.031-3.383c1.073-0.522,2.176-1.539,3.513-1.332
		c1.013,0.653,1.697,1.221,2.64,1.929c-0.04,1.149-0.061,2.438-0.061,3.123c1.596,0,1.451-2.04,1.676-3.069
		c1.834-1.282,3.808-1.417,5.656-0.031c0-1.326-0.946-2.038-1.86-3c-0.444-2.296,0.857-4.163,3.49-5.005
		c1.028,0.742,1.74,1.262,2.74,1.99c0.018,0.462,0.118,2.681,0.184,3.138c1.36-0.681,1.067-1.901,1.867-2.901
		c0.673-0.482,1.37-0.926,2.082-1.309c0.124,0.047,2.386,0.907,2.51,0.957c-1.245-1.797-1.802-3.706-1.508-5.939
		c1.353-0.576,2.663-1.523,4.293-1.523c1.904,0.646,3.176,2.24,3.475,3.582c0.859-1.001,2.038-2.278,5.487-3.421
		c0-1-0.135-2.104,0.061-4.424c1.385,0.061,2.747,0.635,3.934,1.645l0.054-0.046c-0.497-0.918-0.964-1.867-1.416-2.885
		c1.176,0.085,1.901,0.223,2.901,0.39c-0.002-0.003-0.778-1.115-0.781-1.117l-0.015-0.008c-0.842-0.156-2.279-0.48-2.778-0.604
		c-0.07,0.174-0.5,2.395-0.536,2.579c-1.508-0.421-6.13-2.066-5.197-6.077c0.927,0.265,2.621,0.801,2.992,0.934
		c0-0.003-0.173-1.774-0.199-2.059c1.002,0,1.874,0.303,2.702,1.156l0.054-0.046c-0.628-0.819-1.14-1.577-1.117-2.518h-0.077
		c-0.049,1.965-1.838,0.847-2.434-0.153l-0.061,0.023c0.245,0.949,0.452,1.883,0.276,2.847c-3.995-1.393-5.832-3.352-5.472-5.809
		c0.997,0.089,2.304,0.686,3.199,1.133c0,0-0.318-1.973-0.329-2.051c0.559,0.077,1.607,0.207,2.135,0.276l0.023-0.069
		c-2.675-0.957-2.559-1.313-3.559-1.814l-0.038,0.061c5.136,3.597-4.414,3.22-5.181-3.574c1.16-0.426,2.121,0.377,3.1,1.125
		c-0.061-0.605-0.162-1.817-0.207-2.418c0.114,0.08,2.056,1.39,2.173,1.469l0.054-0.054c-1.006-1.22-2.136-1.747-3.054-2.747
		c0.027,0.146,0.475,2.056,0.513,2.227c-1.362-0.137-2.6-0.513-3.62-1.431c0.142,1,0.655,1.786,0.398,2.847
		c-0.711,0.76-1.905,0.724-2.824,1.194c-1.27-0.75-2.418-1.691-3.413-2.793c4.601-2.396,9.012-5.237,12.857-7.668
		c0.081,1.521,0.038,2.406,0.038,3.406c0.933-0.583,1.412-1.073,2.747-1.737c0.006-0.019,0.182-1.962,0.184-1.982
		c1.587,0.885,2.64,1.492,2.64,1.492c-0.2-1-0.429-2.151-0.666-3.865c1.177,0.336,2.149-0.672,3.222-0.957
		c0.773,0.222,1.554,0.49,2.373,0.811c1.003,1.584,1.362,3.467,1.117,5.763c-1.071,0.245-1.921-0.107-2.518-1.041l-0.069,0.031
		c0.15,0.686,0.262,1.193,0.413,1.967c-1.556,0.183-2.573-0.718-3.482-1.982l-0.061,0.038c0.646,1.186,1.641,2.448,0.536,3.536
		c-0.98,0.36-1.424,1.094-1.316,2.181c0,0-1.315-1.177-1.316-1.179c0,0,0.083,1.645,0.115,2.924l0.077,0.008
		c0.02-0.275,0.205-1.655,0.245-1.929c0.008,0.006,1.004,0.805,1.278,1.033c0,0,0.459-2.079,0.459-2.082
		c0.694-0.056,1.328,0.173,1.898,0.742l0.046-0.054c0,0,0,0,0-0.008c-0.816-0.653-1.171-1.8-0.651-3.038
		c0.669,0.112,1.457,0.234,1.944,0.306l0.995,1.27l0.069-0.031c-0.153-0.559-0.444-1.661-0.589-2.242
		c2.386-0.382,3.368,1.688,4.661,3.658c-0.864,0.607-1.706,0.716-2.656,0.559c0,1.001,0.208,1.635-0.298,3.237
		c-0.987-0.827-1.699-1.439-2.372-2.051l-0.054,0.038c0.374,1.041,1.05,2.268,0.849,3.612c-0.026-0.009-1.433-0.487-1.454-0.497
		c0,0.018,0.046,2.395,0.046,2.839l0.076,0.008c0.271-1.656,2.133-2.138,2.671-3.719c1.849,1.27,2.472,3.115,4.569,5.426
		c-0.334-2.515-3.235-4.122-3-6.926c0.049,0.001,2.163,0.031,2.212,0.031c0-1.887,1.085-2.53,2.372-2.043
		c1.794,1.458,2.011,2.727,3.008,3.727c0.186-0.248,1.266-1.182,1.431-1.347c-2.722-1.361-3.799-4.101-3.1-6.773
		c1.033-0.092,2.112-0.168,3.299-0.23c0.915,1.151,2.073,2.662,2.472,4.255c0.266-0.319,1.863-1.76,2.196-2.051l-0.031-0.061
		c-3.189,1.077-5.367-4.41-3.811-6.092c0.799-0.871,2.688-0.647,3.758-0.765c0.666,0.888,1.362,1.783,2.066,2.694
		c-0.107,1.133-0.199,2.151-0.268,3.115l0.069,0.015c1.329-3.359,6.305-3.677,6.413-7.776c4.498-0.742,4.154-1.789,5.334-5.235
		c6.956-1.091,3.016-2.188,5.235-4.814c1.622-0.952,3.378-0.652,4.378-0.903c0.25-1-0.01-1.387,1.117-4.929
		c3.772-1.022,4.059-0.726,5.059-0.926c0-1-0.355-1.505,0.398-4.63c2.198-0.527,4.253-0.364,5.487,0.084
		c-0.061-0.101-1.144-2.018-1.202-2.12c0.143-1.921,0.377-3.52,2.112-3.52c1.387-0.698,2.788,0.485,3.788,1.224
		c0-1.178-0.582-1.947-1.071-3.031c0.409-1.337,0.536-2.546,1.202-3.597c0.92-0.829,2.266-0.669,3.429-0.827
		c0.651,0.589,1.408,1.018,2.265,1.271l0.031-0.069c-1.783-1.293-2.472-3.322-1.852-5.426c1.674-0.861,2.809,0.786,4.026,1.707
		l0.046-0.054c-0.558-0.581-1.88-1.858-2.082-2.663l-0.054,0.023c-0.883-1.265-2.192-0.666-3.559-0.666
		c-0.589-0.497-1.148-0.995-1.645-1.485c0.096-0.304,0.406-1.324,0.406-1.324c-0.181-0.182-2.16-1.984-2.204-2.028
		c-0.911,0.607-1.732,1.752-1.684,2.985c-1.346-0.283-2.283-1.278-3.283-2.135c0.735-0.849,1.003-1.592,0.849-2.411
		c0.008-0.002,0.747-0.177,1.431-0.329c-1.748-1.75-6.078-2.19-5.816-5.878c24.573-21.079,13.815-8.398-34.983-56.09
		c-0.219-55.895-12.02-5.67-67.08-99.958c-25.45-43.566-41.986-71.436-46.883-93.553c0.936-3.119,2.075-6.476,1.791-9.949
		c-1.81-12.307,7.655-39.686,8.771-43.838c29.535,39.534,89.906,112.887,192.103,210.692c-3.107,15.382,12.619,31.758,20.281,36.996
		c7.558,5.295,35.169,33.935,43.531,18.207c2.227,2.365,5.862,3.98,9.008,2.288c12.592-12.515,15.263-34.529,15.597-35.886
		c0.614-0.614,2.064-0.239,2.679,0.375c1.179,2.648,2.281,5.357,3.406,8.128c1.323,5.137-0.195,10.981,2.686,15.75
		c4.819,9.012,15.008,0.498,10.087-20.74c1.133,1.018,2.013,1.806,2.855,2.549c-1.006,6.455,3.703,12.253,7.829,12.253l0.008-0.008
		c7.836-2.493,1.132-20.098-2.855-27.276c-4.061-8.301-13.934-8.295-18.153-13.179c2.497-0.468,208.559,82.412,32.105-117.056
		c-64.459-72.159-97.774-73.898-245.399-139.479c-5.384-2.238-10.739-5.111-16.309-6.98c-6.269-8.244-11.282-17.443-18.322-24.972
		c3.024-1.192,55.712,9.575,130.38,42.498c245.697,107.922,475.319,113.02,487.408,100.93
		C1406.104,769.953,1288.346,715.337,1182.631,682.889z M702.486,591.296c-0.078,1-2.554,1.86-2.916,0.543
		C699.858,590.735,701.514,590.76,702.486,591.296z M763.994,440.306c1.515,0.26,3.038,0.551,4.523,0.857
		c0.565,3.629,0.502,2.807,0.306,4.837c-1.515-0.459-3.306-1.01-5.128-1.622C763.788,442.87,763.903,441.408,763.994,440.306z
		 M752.714,385.264c-2.137-2.552-3.5-3.464-5.005-4.668c0.038-1.699,0.245-3.367,0.452-4.776c3.646,2.941,3.938,6.824,5.771,8.885
		c0.098-1.964-0.038-4.501,2.242-5.732c0.092,1.133,0.184,2.235,0.26,3.329C755.982,383.826,754.726,384.821,752.714,385.264z
		 M757.283,360.613c-0.101,1.768-0.079,3.36-0.107,4.791c-1.152-0.343-2.866-0.836-3.773-1.094
		C753.05,362.489,754.321,361.279,757.283,360.613z M756.357,374.596c-0.069,2.388-1.6,4.355-3.918,5.028
		c-1.209-1.401-2.602-3.077-3.727-4.906C751.137,374.473,753.709,374.428,756.357,374.596z M751.573,356.006
		c-0.955,0.813-1.843,1.628-2.679,2.556c0,0,1.516-0.266,2.763-0.467c0.388,1.002,0.675,1.831,1.133,2.969
		c-2.401,1.623-4.108-1.482-5.648-2.855c0.651-0.612,1.355-1.247,2.219-2.005l-0.038-0.061c-1.952,1.056-4.309,1.339-7.01,0.834
		c0.019-0.017,1.511-1.392,1.531-1.408c-0.048-0.024-2.733-1.664-2.778-1.691c0.395-2.114,2.741-3.535,4.469-1.806
		c-0.164-1.144-0.335-1.982-0.39-5.342c0.528,0.951,1.351,2.572,1.798,3.467c-0.015,0.067-0.543,2.44-0.559,2.533
		C748.054,352.731,749.383,352.964,751.573,356.006z M748.39,338.649c-1.263-0.804-2.327-1.485-3.375-2.181
		c1.489-0.552,1.879-0.711,4.63-1.347C749.178,336.315,748.772,337.516,748.39,338.649z M751.619,327.919
		c-2.07,4.329-0.987,2.124-1.997,4.01c-0.21-0.105-1.91-0.928-1.936-0.941c-1,0.5-1.225,0.876-2.801,1.531
		C743.018,328.58,748.628,324.689,751.619,327.919z M743.882,337.317c1.913,1.485,3.658,4.079,2.327,6.536
		c-0.911-0.712-1.6-1.255-2.227-1.768l-0.008-0.015c-0.145-0.122-0.398-0.337-0.551-0.452l0.008-0.008
		c-0.038-0.019-0.024-0.01-0.061-0.038l-0.008,0.008c-1.023-0.499-2.374-0.729-3.291-4.454
		C741.283,337.126,742.611,337.034,743.882,337.317z M741.425,342.475c0.237,0.199,0.65,0.559,0.857,0.742h0.008
		c0.314,0.314,0.895,0.903,1.171,1.202c0.056,0.579,0.194,2.295,0.207,2.426c-1.706-0.142-3.104-0.242-4.454-0.528
		C739.247,345.573,741.007,343.096,741.425,342.475z M737.576,326.281c0.023,0.068,0.401,2.226,0.413,2.296
		c-1.048,0-2.097-0.008-3.115-0.023c-0.543-0.344-1.041-0.658-1.523-0.949c0.482-2.365,1.171-4.714,3.712-5.327
		C737.566,326.43,737.576,326.281,737.576,326.281z M734.943,315.896c0.605,1.37,1.133,2.679,1.622,3.995
		c-0.811,0.406-1.607,0.819-2.38,1.232c-0.275-0.398-0.773-1.102-1.033-1.454c-0.097-0.592-0.278-1.58-0.467-2.656
		C733.524,316.734,732.948,316.989,734.943,315.896z M730.871,541.833c1.247,0.161,2.556,0.337,4.003,0.559l-0.008,0.008
		c-1.065,1.921-2.17,3.765-4.362,3.765C730.591,545.165,730.765,543.513,730.871,541.833z M718.504,552.854
		c0,0,0.243-2.663,0.39-4.171c2.103,0.37,5.016,2.837,6.337,0.015c1.094-0.061,1.944-0.092,2.755-0.099l0.008-0.077
		c-0.765-0.122-1.592-0.245-2.602-0.39c1.059-1.552,2.31-3.308,3.551-5.196l0.459,0.038c0,0-0.023,1.489-0.023,5.051
		c1.755,1.287,4.354,2.997,6.253,5.372c-5.786-1.137-2.205-0.332-14.801-2.013c0.866,0.788,1.55,1.324,3.245,2.128
		c-0.633,0.233-1.368,0.502-1.982,0.758c-0.106-0.086-1.737-1.439-1.737-1.439c-0.842,1.119-2.88,2.456-5.334,2.885
		C716.597,554.204,718.504,552.854,718.504,552.854z M690.095,262.982c2.266,1.117,3.337,3.824,4.799,5.847
		c0.283,0.842,0.612,1.76,0.995,2.809c-0.996,1.619-1.326,1.9-2.319,3.544c-0.448-0.865-0.888-1.637-1.332-2.556
		c-0.222-2.438-0.051-5.795-2.449-8.059l-0.008-0.015h-0.008l-0.36-0.497C689.484,263.933,689.848,263.354,690.095,262.982z
		 M682.963,262.898c1-0.056,2.356-0.051,4.577-0.199c0.121,1.033,0.085,0.676,0.214,1.799c-0.788,2.005-1.454,3.696-2.166,5.388
		C680.687,267.355,682.732,266.694,682.963,262.898z M433.078,342.713c1.186-0.566,2.395,0.245,3.207,1.048
		c-1.313,1.067-2.014,2.839-3.972,2.839C432.03,345.399,431.946,343.769,433.078,342.713z M427.147,360.307
		c0,0,0.234-1.013,0.582-2.464c0.934-0.628,1.806-1.209,2.679-1.768c0.092,0.148,0.964,1.454,1.37,2.02
		c-0.62,1.944-0.635,4.133-0.046,6.498C429.297,362.688,429.135,362.462,427.147,360.307z M417.91,446.36
		c0.612-1.202,1.309-2.38,2.059-3.49c1.14,0.122,2.327,0.23,3.635,0.321c0.13,0.321,0.367,0.918,0.497,1.247
		C421.657,445.236,419.625,445.882,417.91,446.36z M428.425,438.378l-0.214,1.875c-1.917-0.355-1.194-0.105-3.521-0.88
		c0.33-1.237,0.596-2.483,1.255-3.467c1.204-0.669,2.299,0.277,3.299,0.758c0.046,0.199,0.306,1.301,0.452,1.883
		C429.695,438.546,428.427,438.378,428.425,438.378z M431.594,374.772l-0.26,2.066c-0.834-2.013-0.689-4.263,0.444-7.056
		c0.964,2.005,1.883,3.735,2.809,5.281C433.332,374.764,432.596,374.772,431.594,374.772z M440.379,350.588
		c-1.01-0.046-2.013-0.084-2.977-0.115c0.162-0.837,0.482-2.411,0.482-2.411c-0.353,0.247-2.511,1.92-2.855,2.189
		c-0.406-0.796-0.811-1.63-1.224-2.487c0.918-0.967,1.668-1.788,2.579-2.747c1.286,1.554,2.663,3.046,4.079,4.439L440.379,350.588z
		 M477.191,279.138c0.98-2.242,2.151-3.972,3.574-5.288c1.079,0.077,2.074,0.191,3.038,0.329c0.883,0.667,1.434,1.737,2.426,3.36
		c-3.459,0.247-6.279,2.421-9.184,4.087C477.076,280.737,477.122,279.926,477.191,279.138z M477.275,284.595
		c0.677-0.327,1.622-0.8,2.273-1.125c0.214,1.768,0.635,4.018,1.959,5.924c-0.298,0.176-0.849,0.482-1.156,0.651
		C478.278,288.276,477.268,286.485,477.275,284.595z M496.148,282.957c0.056,0.098,1.227,2.314,1.286,2.426
		c-0.239,0.136-0.742,0.4-0.781,0.421c-0.065-1.358-0.31-2.481-1.661-2.334c-0.505-1.293-1.071-2.763-0.62-4.24
		c0.564,0.113,0.986,0.171,1.508,0.275c0.774,0.803,1.752,2.098,2.464,3.421C497.821,282.926,496.23,282.957,496.148,282.957z
		 M416.869,1095.771l0.008,0.008c2.089,0.398,2.151,2.801,2.181,4.248c-0.642,0.944-1.191,1.679-1.798,2.663
		c-5.329-1.992-3.216-2.077-4.255-5.135C414.219,1096.668,415.306,1094.914,416.869,1095.771z M410.593,1089.725
		c1.622,1.01,3.299,1.982,4.737,2.793c-0.334,2.892-3.263,4.26-4.416,3.107c-2.123-0.528-1.573-2.885-1.753-4.538
		C409.229,1091.023,410.552,1089.766,410.593,1089.725z M404.93,1089.625c0.824,0.439,2.021,1.073,2.855,1.5
		c0.227,1.316,1.184,3.836-0.765,4.814c-1.263,1.457-3.065,0.399-4.508-0.413c-0.23-1.163-0.459-2.273-0.696-3.314
		C402.71,1091.279,403.759,1090.414,404.93,1089.625z M399.542,1083.755c0.291,0.245,0.827,0.727,1.033,0.911
		c1,0.5,5.001,0.947,3.566,3.911c-1.314,0.998-2.797,2.649-4.309,1.316h-0.008C397.135,1088.779,397.776,1085.399,399.542,1083.755z
		 M393.09,1084.383c1.443-0.111,2.959-0.047,3.903,0.964c-0.072,1.691,0.602,3.853-1.355,4.538c-1.31,1.31-2.976-0.178-4.11-0.849
		c-0.023-0.995-0.031-2.028-0.031-3.245C392.027,1085.302,392.578,1084.827,393.09,1084.383z M377.968,1089.327
		c0.023-1.117,0.046-2.181,0.084-3.245c1.903-0.032,3.818-0.895,5.709-0.796c-0.044,1.289,0.619,2.761-0.084,3.926
		c-0.874,0.703-1.912,1.219-3.038,1.852C379.835,1090.521,378.986,1089.97,377.968,1089.327z M381.657,1091.906
		c1.334-0.651,2.563-2.389,3.987-0.964C391.571,1094.574,378.826,1102.465,381.657,1091.906z M386.486,1090.184h-0.008
		c-2.527-1.333-1.853-5.457,0.911-6.191c0.652,0.4,2.672,1.636,3.329,2.028c-0.207,0.964-0.413,1.99-0.612,3.054
		C388.998,1089.601,387.786,1091.189,386.486,1090.184z M387.894,1095.488c0.054-1.301,0.107-2.587,0.161-3.857
		c1.685-1.03,3.068-2.075,4.492-0.651c1.852,0.78,1.259,2.945,1.332,4.592c-0.926,0.589-1.791,1.179-2.648,1.806
		C390.159,1096.965,389.095,1096.36,387.894,1095.488z M395.134,1104.044c-1.048-0.566-2.181-1.171-3.321-1.768
		c-0.015-1.37-0.008-2.625,0.031-3.834c0.125-0.089,2.124-1.501,2.594-1.837c1.033,0.551,2.112,1.133,3.306,1.776
		c0.115,1.271,0.207,2.579,0.276,3.995C397.039,1102.911,396.098,1103.47,395.134,1104.044z M398.241,1097.286
		c-0.827-0.505-1.707-1.018-2.755-1.592c-1.729-8.059,6.512-6.187,5.893-0.268C400.238,1096.115,399.213,1096.728,398.241,1097.286z
		 M399.42,1102.292c-0.122-1.546-0.199-2.793-0.245-3.934c0.507-0.338,2.266-1.487,2.778-1.821c1,0.534,1.606,0.727,2.725,1.462
		c0.637,1.076,0.515,2.495,0.704,3.605c-0.975,0.642-1.712,1.494-2.839,1.921C401.428,1103.431,400.56,1102.728,399.42,1102.292z
		 M409.262,1108.085c-1.117,1.133-2.763,2.25-4.247,1.094c-1.703,0-1.831-3.041-1.998-4.041c0.918-0.88,1.852-1.714,2.786-2.487
		c1.202,0.49,2.365,1.041,3.459,1.645C409.286,1105.51,409.546,1106.848,409.262,1108.085z M406.116,1098.228
		c1.04-0.813,1.96-2.334,3.475-1.86l0.008,0.008c1.86,0.092,2.709,1.73,2.709,3.214
		C412.332,1104.172,405.902,1103.855,406.116,1098.228z M410.448,1103.876c0.8-0.514,1.593-1.071,2.464-1.462
		c1.426,0.052,2.603,1.103,3.788,1.737c-0.461,1.425-1.062,3.23-1.607,4.623C409.298,1109.354,410.816,1105.977,410.448,1103.876z
		 M414.856,1113.901c-0.505-1.385-0.314-2.87-0.046-4.148c1.14,1.63,3,2.755,5.671,3.444c-0.549,0.503-2.004,1.844-2.548,2.357
		C416.708,1114.96,415.692,1114.526,414.856,1113.901z M421.974,1121.999c-2.403-0.666-3.765-2.709-3.574-5.334
		c3.809-3.266,5.892-1.716,6.054,3.299C423.489,1120.713,422.701,1121.363,421.974,1121.999z M488.265,1128.695
		c0.015,1.01,0.038,2.005,0.069,3.038c-1.087-0.949-1.852-1.921-2.334-2.954C486.719,1128.741,487.424,1128.718,488.265,1128.695z
		 M485.74,1128.772c-0.083,0.203-0.753,1.815-0.872,2.112c-0.819,0.49-1.699,1.018-2.571,1.584c-1.011-0.644-2.27-0.992-2.969-1.929
		c-0.214-1.094-0.375-2.066-0.497-2.962C481.125,1127.823,483.444,1128.22,485.74,1128.772z M481.867,1133.639
		c0.138,1.163,0.291,2.694,0.26,4.209c-0.98,0.536-1.936,1.087-2.847,1.638c-0.389-0.198-2.909-1.477-3.459-1.753
		c-0.107-1.24-0.161-2.541-0.168-3.873c0.962-0.583,1.904-1.332,2.992-1.607C479.831,1132.483,480.867,1133.168,481.867,1133.639z
		 M477.65,1127.333c-0.236,1.471,0.549,3.591-1.087,4.393c-1.491,1.491-3.861,0.788-5.265-0.742
		c-0.187-1.173-0.229-2.406-0.298-3.406C474.212,1126.2,473.705,1126.41,477.65,1127.333z M467.923,1134.496
		c0.934-0.612,1.936-1.263,2.939-1.906c1.133,0.543,2.258,1.133,3.329,1.753c0.092,1.179,0.191,2.273,0.306,3.344
		C467.711,1143.186,468.055,1135.496,467.923,1134.496z M465.964,1126.399h0.008c1.459-1.094,3.618-0.727,5.334-0.337
		c-1.507,0.204-2.823,0.22-4.186,0.122c0.01,0.009,2.167,1.802,2.533,2.112c0.061,0.972,0.145,2.013,0.245,3.276
		c-1,0.636-1.82,1.328-2.977,1.867c-1.244-0.206-2.335-0.873-3.536-1.4c-0.059-1-0.255-2.348-0.222-3.773
		C463.974,1127.501,464.954,1126.942,465.964,1126.399z M461.954,1130.624c0.496,2.046-2.056,2.549-3.299,3.436
		c-0.649-0.308-2.491-1.216-3.398-1.699c-0.024-0.333-0.119-3.302-0.13-3.635C460.109,1125.915,461.954,1127.531,461.954,1130.624z
		 M457.737,1123.284l-0.298,2.426c-1.174,0.641-2.161,1.511-3.413,1.714c-1.153-0.275-2.238-0.785-3.566-1.355
		C451.44,1122.342,447.621,1120.567,457.737,1123.284z M453.604,1129.361c0.146,1.109,0.124,2.234,0.153,3.383
		c-1.584,0.957-3.758,2.25-5.686,0.765h-0.015c-1.864-0.543-1.193-2.697-1.378-4.171c1.194-0.735,2.327-1.378,3.459-1.959
		C451.234,1127.996,452.734,1128.335,453.604,1129.361z M442.982,1122.641c3.452-1.987,3.259-2.152,6.26,0.015
		c-0.054,0.997-0.155,2.913-0.222,3.995c-1.14,0.474-2.288,0.995-3.352,1.492c-0.83-0.52-1.929-1.175-2.786-1.684
		C442.964,1122.901,442.919,1125.109,442.982,1122.641z M437.93,1120.881c1.469,0.383,2.801,1.087,3.834,2.043
		c0.092,1.186,0.122,2.441-0.253,3.62c-0.858,0.813-1.817,1.257-2.755,1.883c-1.001-0.455-5.615-2.118-2.816-3.987
		c-0.007-0.013-1.043-1.485-1.064-1.515C435.861,1122.114,436.683,1121.232,437.93,1120.881z M425.624,1119.794
		c-0.633-1.569-0.196-3.298-0.099-4.844c1.86,0.675,3.91,1.117,4.936,1.401c0.061,1.944-0.765,3.696-2.38,5.066
		C427.178,1120.935,426.351,1120.384,425.624,1119.794z M426.887,1137.534c0-2.078,1.813-2.422,3.383-3.207
		C442.174,1140.942,424.945,1144.404,426.887,1137.534z M432.696,1133.861c0.925-1.906,1.16-4.005,1.936-5.878
		C442.466,1131.789,435.335,1136.736,432.696,1133.861z M441.596,1139.654c-1.064,0.628-2.02,1.202-2.985,1.814
		c-2.917-1.707-3.58-0.345-2.679-5.418c0.834-0.528,1.799-1.14,2.77-1.722c1.094,0.582,2.059,1.117,2.954,1.645
		C441.627,1137.205,441.612,1138.453,441.596,1139.654z M442.53,1134.81c-4.401-2.031-4.213-4.776-0.038-7.072
		c1.163,0.727,2.112,1.332,2.962,1.906c-0.023,1.186-0.046,2.25-0.054,3.337C444.497,1133.539,443.533,1134.152,442.53,1134.81z
		 M446.823,1140.994c-1.36,0-2.419-0.864-3.704-1.316c-0.03-1.356-0.273-2.545,0.099-3.674c0.879-0.92,2.074-1.376,3.145-1.974
		c1.403,0.734,2.058,1.046,3.482,1.798c0.077,1.278,0.153,2.342,0.23,3.337C449.076,1139.764,448,1140.525,446.823,1140.994z
		 M454.561,1145.616c-2.044,1.931-5.135,2.145-6.957-0.031c-0.069-1.254-0.816-3.218,0.719-3.834h0.008
		c1.523-1.224,3.444-1.393,4.875-0.444h0.015C455.195,1141.852,454.412,1144.128,454.561,1145.616z M453.298,1139.953
		c-2.047-0.34-1.811-2.7-2.005-4.209c1.122-0.657,2.179-1.6,3.498-1.898c1.079,0.253,2.434,0.666,3.367,1.638
		c0.12,0.909,0.168,2.178,0.199,3.268C457.355,1139.352,454.719,1141.374,453.298,1139.953z M462.788,1145.211
		c-1.01,0.528-2.089,1.102-3.39,1.814c-1.094-0.559-2.219-1.102-3.413-1.668c-0.046-1.14-0.069-2.311-0.077-3.566
		c1.15-0.653,2.162-1.612,3.475-1.829c1.219,0.297,2.375,0.93,3.375,1.347C462.834,1142.54,462.842,1143.856,462.788,1145.211z
		 M463.262,1140.251c-1.296-0.693-2.041-1.062-3.383-1.776c-0.054-0.547-0.207-2.508-0.253-3.153
		c0.918-0.696,1.89-1.416,2.893-2.135c3.997,2.082,3.54,0.258,4.049,5.151C465.535,1138.966,464.449,1139.593,463.262,1140.251z
		 M467.847,1146.405c-1.171-0.482-2.281-0.903-3.39-1.301c-0.184-1.24-0.26-2.51-0.237-3.796c0.121-0.075,2.638-1.637,2.916-1.814
		c1.117,0.367,2.273,0.796,3.444,1.263c0.184,0.98,0.344,1.936,0.475,2.931C470.659,1145.158,468.987,1145.582,467.847,1146.405z
		 M473.939,1152.045h-0.008c-1.626,1.24-3.345-0.312-4.975-0.827c-0.122-1.393-0.184-2.648-0.199-3.827
		c0.866-0.578,1.8-1.178,2.885-1.913c1.732,0.938,4.117,1.089,4.117,3.482l0.008,0.008
		C476.255,1150.391,475.352,1151.556,473.939,1152.045z M474.467,1145.348c-1.993-0.391-2.239-2.388-2.518-4.202
		c3.529-2.385,2.712-2.706,6.911-0.344c0.145,0.98,0.329,1.959,0.497,2.878C477.25,1146.095,475.213,1146.099,474.467,1145.348z
		 M483.513,1150.599c-0.918,0.643-1.821,1.301-2.679,1.959c-1.455-0.695-3.729-0.899-3.85-2.839
		c-1.013-2.027,0.99-3.766,3.176-4.286C482.908,1145.907,483.819,1148.364,483.513,1150.599z M483.872,1145.746
		c-1.339-0.612-2.434-1.163-3.444-1.753c-0.105-1.051-0.222-2.28-0.153-3.214c0.67-0.962,1.809-1.444,2.755-2.128
		c0.838,0.397,2.013,0.98,2.801,1.477c0.708,1.024,0.496,2.41,0.666,3.528C485.472,1144.438,484.638,1145.103,483.872,1145.746z
		 M488.288,1143.58c-1.075-1.089-1.314-2.833,0.023-3.827C488.472,1141.017,488.457,1142.295,488.288,1143.58z M484.791,1138.239
		h-0.008c-1.987-0.684-1.169-3.139-1.531-4.714c0.741-0.604,1.644-1.325,2.457-1.821c0.757-0.126,1.939,0.609,2.663,0.865
		c0.038,1.684,0.077,3.421,0.069,5.151C487.248,1138.897,485.885,1139.096,484.791,1138.239z M514.715,582.059
		c-0.467,0.957-0.964,1.974-1.531,2.969c-0.028-0.54-0.073-1.931-0.153-4.049C513.255,581.121,514.528,581.939,514.715,582.059z
		 M500.143,267.972l-0.513-1.01c1.6-1.125,4.049-2.212,6.727-1.102C504.419,266.754,502.436,268.537,500.143,267.972z
		 M503.84,273.03c-0.462,0.054-2.266,0.27-2.663,0.321c0.378-1.064,0.171-2.409,1.087-3.084c0.559,0,1.661,0.008,2.281,0.015
		C504.349,270.992,504.018,272.318,503.84,273.03z M504.176,576.28l0.551-0.429c1.222,0.645,2.08,1.18,5.304,3.13
		c-0.054,1.936,0.099,3.85,0.245,5.296h0.077c0.096-1.585,0.177-3.26,0.245-4.86c0.398,0.26,1.087,0.689,1.584,1.003
		c-0.077,1.607-0.168,3.26-0.253,4.898c-0.019-0.006-1.178-0.352-1.194-0.36c-0.026,0.065-0.332,1.089-0.352,1.156
		C506.475,586.509,504.021,578.206,504.176,576.28z M517.493,593.531c-6.634-2.748-11.836-1.768-15.888-1.768
		c-0.177-0.65-0.421-1.588-0.429-1.615c1.387-1.254,2.902-2.443,4.018-3.368c2.151,0.819,4.447,1.668,6.827,2.334
		c0,0,0.639,1.158,0.658,1.194c0.028-0.194,0.19-1.469,0.214-1.615c0.884,0.601,1.753,1.194,1.753,1.194
		c0.027,0,2.935-0.432,2.962-0.436C517.562,590.798,517.523,592.176,517.493,593.531z M521.893,245.402
		c2.134,1.499,1.559,1.022,4.676,3.75c-1.492,0.582-3.023,0.995-4.561,1.225C521.105,248.517,521.442,246.658,521.893,245.402z
		 M522.621,594.304l-0.459,0.153c-2.756-0.109-2.342-2.972-2.342-7.072c-0.686,0-1.661-0.015-1.661-0.015
		c3.475-1.906,7.408,1.378,9.23,3.666C525.261,591.977,523.753,593.018,522.621,594.304z M528.911,593.171
		c-1.571,0.348-3.301,0.503-4.814,0.712c1.837-0.857,3.406-1.806,4.768-2.885c0.268,0.383,0.796,1.156,1.094,1.577
		C529.911,592.604,528.99,593.128,528.911,593.171z M530.588,579.051c-1.185,0.166-2.304,0.193-3.344,0.275
		c0.503-0.895,0.019-1.647-0.329-2.571c1.53-1.598,2.535-2.656,3.536-3.299C530.719,578.975,530.588,577.273,530.588,579.051z
		 M540.651,589.842c-3.538-1.671-6.285-4.505-9.582-6.689c1-0.289,2.852-0.74,4.776-1.401c2.003,2.356,0.873,1.325,5.281,4.622
		C540.965,587.523,540.812,588.678,540.651,589.842z M540.253,584.714c-0.528-1.446-0.926-2.901-1.293-4.271
		c0.758,0.168,1.5,0.329,2.242,0.498c0.027,1.089,0.046,3.341,0.046,4.209C541.122,585.091,540.389,584.767,540.253,584.714z
		 M581.045,240.52c-1.185-0.271-2.703-0.61-3.857-0.857l-0.008-0.023l-0.038,0.015l-0.031-0.008v0.031
		c-1.206,0.577-1.478,1.724-2.143,2.724c0.009,0.006,1.622,1.646,1.638,1.661c-0.75,0.071-2.324,0.21-3.061,0.283
		c-0.077-3.367,2.679-6.804,6.161-7.676c0.106,0.042,0.855,0.34,1.446,0.582C581.099,238.492,581.068,239.532,581.045,240.52z
		 M589.035,240.918c-1.446-0.383-2.931-0.773-4.401-1.117c1.39-1.306,3.378-1.275,5.074-1.523
		C589.47,239.199,589.16,240.418,589.035,240.918z M618.974,1154.356c-1.89,0.888-3.896,0.245-5.013-1.623
		c-0.033-1.431,0.168-2.597,0.237-3.597c1.462-0.505,3.031-0.781,4.668-0.827C618.807,1150.352,618.952,1152.29,618.974,1154.356z
		 M615.921,1136.195c0.788-0.458,1.77-0.813,2.633-1.117c0.051,1.537,0.107,4.5,0.26,7.033c-1.137-0.785-2.358-1.62-3.145-2.572
		C615.515,1138.514,615.599,1137.389,615.921,1136.195z M614.711,1140.894c0.959,0.616,1.796,1.447,2.648,2.204
		c-0.161,1.234-0.281,2.315-0.605,3.337c-0.986,0.606-1.988,1.286-3.145,1.286c-0.911-0.52-1.779-1.231-2.625-1.875
		c0.054-1.202,0.115-2.418,0.184-3.62C612.414,1141.665,613.347,1140.894,614.711,1140.894z M610.227,1134.014
		c0.788,0.023,1.661,0.099,2.74,0.237c1.974,1.509,1.738,5.437-0.964,5.839l-0.008,0.008c-1.952,1.026-3.589-1.523-3.911-2.066
		C607.755,1136.188,608.596,1134.611,610.227,1134.014z M609.683,1141.767c0.379,1.25-0.182,2.59-0.52,3.819
		c-1.519,0.32-3.404,1.318-4.623-0.252c-1.568-0.787-1.359-2.865-0.88-4.546c0.852-0.982,2.273-1.013,3.429-1.416
		C607.939,1140.14,608.889,1140.921,609.683,1141.767z M602.336,240.573c0.514,0,2.199,0.028,2.679,0.038
		c-0.726,1.548-2.576,0.799-4.056,0.995C600.959,241.606,602.334,240.575,602.336,240.573z M601.716,1133.31
		c1.814,0.084,3.39,0.207,4.829,0.375c0.582,2.839,0.077,4.385-1.538,4.737c-1.308,1.308-3.201-0.729-4.202-1.73
		C601.066,1135.682,601.357,1134.603,601.716,1133.31z M600.4,1138.2c1.814,1.186,2.204,3.314,1.033,5.724
		c-0.804,0.138-1.684,0.299-2.747,0.521C599.131,1142.703,600.172,1138.967,600.4,1138.2z M591.599,236.578
		c1.541-2.077,3.224-3.872,5.702-3.872v-0.008c0.266-0.007,2.092-0.077,2.304-0.077v-0.008l0.643-0.069
		c0.008,1.194,0.023,2.403,0.046,3.582C597.324,236.127,594.891,236.27,591.599,236.578z M598.747,1157.655
		c-1.104,0.309-2.61,1.229-3.528-0.176c0.306-2.296,1.018-4.646,2.105-6.987C598.445,1151.537,602.197,1154.424,598.747,1157.655z
		 M604.043,1146.634c1.59,1.047,0.709,2.931,0.52,4.401c-1.192,0.311-2.351,0.977-3.589,0.804
		C594.6,1147.748,602.076,1142.711,604.043,1146.634z M607.502,1158.481c-1.009,0.32-2.216,0.822-3.444,1.041
		c-1.818-1.012-3.54-2.509-2.61-4.37c0.019-1.811,2.128-2.126,3.429-2.74c1.072,0.834,2.349,1.427,2.839,2.633
		C607.81,1156.216,607.592,1157.371,607.502,1158.481z M607.418,1152.519c-1.637-0.814-1.282-2.963-0.781-4.668
		c1.198-0.334,2.275-0.912,3.498-0.827c0.867,0.453,1.723,1.257,2.495,1.906c-0.145,1.14-0.283,2.349-0.429,3.697
		C610.994,1153.029,608.735,1154.237,607.418,1152.519z M615.27,1159.491c-1.574,1.373-3.898,2.054-5.181,0.329
		c-1.779-0.892-0.715-3.063-0.467-4.515c2.338-1.013,1.166-0.511,2.977-1.293C614.658,1154.907,616.28,1156.951,615.27,1159.491z
		 M616.579,1160.173c0.092-2.097,0.352-4.018,2.411-4.577c0.024,1.808,0.125,4.396,0.207,6.199
		C618.27,1161.206,617.359,1160.655,616.579,1160.173z M628.985,254.158c-2.267-2.39-2.619-2.14-3.62-2.64
		c-0.048,0.032-0.881,0.997-0.918,1.041l-0.36,0.092c-0.367-0.712-0.842-1.431-1.454-2.189c-0.283-0.788-0.551-1.577-0.804-2.357
		v-0.015c-0.339-0.388-1.539-1.79-1.753-2.043c0.613-0.175,1.883-0.572,2.464-0.742c1.432,3.678,3.669,5.951,6.612,7.424
		L628.985,254.158z M636.01,246.497c-0.857-1.217-1.492-2.158-2.051-3.046c4.463-0.838,5.917,0.697,7.959,2.273
		C639.899,246.481,637.661,246.428,636.01,246.497z M670.878,259.109c-0.14,0.021-1.579,0.276-1.852,0.321
		c0.164,0.328,1.466,2.667,2.311,4.056c-0.62-0.245-1.255-0.513-1.89-0.811c-0.973-2.482-3.264-3.321-5.273-4.462
		c1.619,0.448,3.601,1.271,5.487,0.957c-1.226-0.857-5.067-2.963-7.867-5.105C665.505,251.515,671.522,254.403,670.878,259.109z
		 M662.873,575.484c-0.231,0.02-0.965,0.091-1.324,0.123C661.826,574.58,662.263,574.585,662.873,575.484z M657.102,576.089
		c1.202-0.559,2.296-0.75,3.329-0.597c0.681,1.194,1.385,2.388,2.082,3.559c-0.214,0.075-2.049,0.777-2.059,0.781
		c1.81,1.806,3.151,2.756,3.62,4.485c-1.431-0.383-2.793-1.171-4.278-2.472c-1.283-2.938-0.037-0.082-1.186-2.709v-0.008
		c-0.434-0.217-1.166-0.571-1.546-0.75C657.069,577.935,657.082,576.529,657.102,576.089z M645.822,579.587
		c0.031-1.592,0.987-2.87,2.617-3.513c0.685,1.371,1.082,2.166,1.431,2.855C648.585,579.516,647.08,580.972,645.822,579.587z
		 M654.118,588.357c-0.426-1.329-1.02-3.312-1.661-5.105l-0.069,0.023c0.283,2.036,0.673,4.056,1.11,6.291
		c-1-0.553-2.117-1.113-3.276-1.783c0.033-0.268,0.375-3.181,0.375-3.452c-0.024-0.024-1.46-0.979-1.485-0.995
		c1.159-0.248,2.957-0.416,4.286-1.347c-2.042-0.341-4.258-0.36-6.245-0.337c2.763-2.717,7.362-4.117,10.523-1.37
		c0.389,2.886,1.606,5.526,2.464,8.449C658.059,588.946,655.939,588.656,654.118,588.357z M670.082,592.903
		c-0.376,0.107-0.881,0.251-1.224,0.337c-1.255-2.538-1.357-2.543-1.89-3.543c-0.061,1.041,0.112,3.43-0.574,5.449
		c-1.531-0.605-2.694-1.094-3.773-1.592c1.136-2.248,3.09-3.934,4.661-5.985c0.217-0.054,1.718-0.474,1.737-0.482
		c-0.179-0.714-0.318-1.288-0.482-2.059c1.421,0.303,2.965,0.522,3.796,1.86C671.253,588.495,670.541,590.408,670.082,592.903z
		 M676.74,264.964c-0.412-0.135-2.029-0.659-2.441-0.788c-0.092-2.085-0.053-4.505-0.099-6.276l-0.077-0.008
		c-0.214,1.355-0.383,2.801-0.536,4.684c-0.421-0.107-1.186-0.306-1.584-0.413c-0.276-0.666-0.505-1.27-0.712-1.852
		c0.559-1.309,1.048-2.61,1.454-3.712c1.783,1.01,3.207,2.602,4.026,4.477C676.84,262.408,676.794,263.778,676.74,264.964z
		 M831.962,1073.898c-0.311-1.423-0.149-2.876-0.199-4.393c2.128-0.421,4.018,0.566,5.342,2.801
		c-0.107,1.117-0.199,2.25-0.268,3.383c-0.926,0.352-1.821,0.712-2.686,1.079C833.455,1075.896,832.659,1074.901,831.962,1073.898z
		 M839.149,1064.355c0.819,1.064,1.684,2.196,2.579,3.337c-0.553,1.289-0.315,3.416-1.806,4.156
		c-3.013,0.929-5.151-2.952-4.408-5.518l0.008-0.008C835.3,1064.206,837.752,1064.504,839.149,1064.355z M852.427,1058.446
		c1.212-0.474,2.242-0.949,3.482-0.949c1.169,0.499,1.805,1.736,2.709,2.617c-0.237,1.63-0.589,2.946-1.11,4.133
		c-1.025,0.046-2.143,0.122-3.528,0.23C852.305,1063.069,851.753,1060.926,852.427,1058.446z M852.427,1068.977
		c-1.013,0.661-2.231,0.615-3.551,0.666c-2.021-1.806-2.626-4.568-0.949-6.788c1.072-0.084,2.22-0.168,3.375-0.245
		C853.345,1064.064,853.843,1066.857,852.427,1068.977z M856.866,1056.495c0.379-1.155,0.785-2.278,1.163-3.329
		c0.509-0.142,2.91-0.833,3.222-0.918c1.674,1.605,1.854,1.786,2.625,2.51c-0.306,1.401-0.651,2.786-1.026,4.11
		c-1.109,0.103-2.506,0.513-3.773,0.207C858.354,1058.35,857.555,1057.334,856.866,1056.495z M862.851,1049.599
		c0.232-1.974,2.317-2.203,3.819-2.862c0.857,0.742,1.768,1.577,2.794,2.564c-0.397,1.835-0.312,4.401-2.656,4.401
		C864.205,1055.01,861.191,1051.259,862.851,1049.599z M866.685,1045.979c-1,0.292-2.123,0.634-3.306,0.873
		c-1.061-0.73-1.815-1.661-2.694-2.579c0.332-1.218,0.657-2.347,0.941-3.459c0.819-0.406,1.722-0.696,2.671-0.857
		c1.37,0.651,2.503,1.768,3.268,3.237C867.397,1044.15,867.098,1045.084,866.685,1045.979z M862.46,1047.778
		c-0.39,1.064-0.765,2.197-1.148,3.444c-1.023,0.467-2.171,0.991-3.314,0.888c-1.139-0.536-1.751-1.691-2.648-2.564
		c0.317-1,0.539-2.461,1.232-3.559c0.98-0.482,2.02-0.758,3.115-0.819C860.903,1045.63,861.538,1046.88,862.46,1047.778z
		 M857.004,1053.12c-0.429,1.033-0.811,2.151-1.148,3.321c-1.24,0.168-2.48,0.306-3.681,0.406c-0.612-0.796-1.293-1.653-2.135-2.694
		c0.288-1.018,0.908-3.063,1.049-3.505c1.212-0.083,2.491-0.428,3.758-0.138C855.7,1051.153,856.344,1052.249,857.004,1053.12z
		 M851.73,1057.773c-0.293,1.026-0.444,2.35-1.041,3.413c-0.932,0.866-2.291,0.645-3.367,0.849c-0.758-0.98-1.638-2.143-2.464-3.314
		c0.406-1.102,0.674-2.242,0.911-3.314c1.224-0.153,2.48-0.26,3.735-0.314C850.246,1056.028,850.973,1056.901,851.73,1057.773z
		 M846.503,1062.48c-0.197,1.868-0.46,3.148-1.14,4.148c-1.148-0.015-2.288-0.008-3.406,0.023c-0.628-0.903-1.278-1.798-1.929-2.656
		c0-1,0.249-2.992,1.003-4.202c1.102,0.008,2.235,0.015,3.383,0.038C845.057,1060.673,845.738,1061.546,846.503,1062.48z
		 M838.797,1083.358c-0.302,0.101-0.646,0.213-0.957,0.337c-1.682,0.198-2.797-1.17-3.934-2.732c0.008-1.11,0.015-2.265,0.038-3.39
		c0.55-0.275,1.621-0.795,2.174-1.071c1,0.976,2.356,2.368,3.168,3.23C839.103,1081.008,838.934,1082.194,838.797,1083.358z
		 M839.784,1079.608c-0.98-1.186-1.99-2.418-2.472-3.918c0.245-0.903,0.49-1.837,0.735-2.87c1.087-0.069,2.196-0.13,3.306-0.176
		c0.38,0.532,1.661,2.249,2.089,2.816C843.014,1081.326,842.508,1079.024,839.784,1079.608z M847.628,1074.158
		c-1.071,0.474-2.204,0.781-3.36,0.895c-0.893-1.145-1.636-2.058-2.61-3.276c0.244-1,0.509-2.013,0.804-3.406
		c1.202-0.543,2.349-0.857,3.52-0.964c0.819,1.041,1.676,2.166,2.48,3.383C848.057,1071.87,847.781,1073.003,847.628,1074.158z
		 M854.44,1077.243c-1.048,0.145-2.128,0.253-3.23,0.321c-1.28-0.477-1.775-1.813-2.725-2.763c0.245-1.378,0.574-2.74,0.987-4.056
		c1.242-0.12,2.377-0.214,3.566-0.306c0.738,0.922,1.464,1.774,2.135,2.771C855.409,1074.558,854.66,1075.857,854.44,1077.243z
		 M859.774,1071.763c-1.01,0.474-2.143,0.849-3.367,1.102c-1.307-1.361-3.314-2.772-2.503-4.99l0.008-0.008
		c0-1.44,0.602-2.851,4.209-2.64c1.075,1.396,1.626,2.04,2.579,3.276C860.302,1069.605,859.988,1070.707,859.774,1071.763z
		 M865.407,1065.097c0.112,2.289-2.321,2.296-4.232,2.296c-0.658-0.842-1.378-1.722-2.135-2.602c0.1-1.247,0.237-2.541,0.413-3.964
		c0.419-0.117,1.687-0.477,3.39-0.941C863.843,1060.794,866.493,1062.924,865.407,1065.097z M869.8,1061.936
		c-1.117,0.02-2.421,0.373-3.559,0.115c-0.921-0.921-1.525-1.754-2.311-2.648c0,0,0.726-3.175,0.911-3.995
		c1.332-0.222,2.612-0.506,3.941-0.444c1.147,0.584,1.847,1.829,2.732,2.763C871.078,1059.005,870.534,1060.505,869.8,1061.936z
		 M875.999,1055.821c-1.502,0.384-3.886,1.695-4.852-0.237c-1.906-1.339-1.247-3.758-0.459-5.724
		c1.527-0.344,2.762-0.62,3.589-0.788c0.865,0.888,1.753,1.806,2.671,2.717C876.772,1053.227,876.45,1054.589,875.999,1055.821z
		 M881.172,1050.38c-0.911,0.26-2.105,0.605-3.283,1.003c-0.93-0.93-2.024-1.711-2.633-2.878c-0.032-1.492,0.188-2.712,0.268-3.712
		c0.939-0.321,2.307-1.126,3.283-0.949c1.413,0.998,2.36,2.329,3.207,3.329C881.716,1048.191,881.456,1049.232,881.172,1050.38z
		 M882.435,1046.109c-0.957-0.995-1.814-1.875-2.625-2.694c-0.008-2.395,0.321-4.86,2.801-4.959
		c1.964-0.982,3.103,1.345,4.439,2.526C885.465,1047.052,885.826,1045.077,882.435,1046.109z M891.313,1036.987
		c-0.047,1.152-0.021,0.546-0.122,2.702c-4.223,0-6.098,0.163-6.153-4.117c0.923,0.36,1.496,0.573,2.028,0.773l0.038-0.054
		c-0.811-0.725-1.643-1.334-2.082-2.349C886.022,1033.742,888.607,1034.281,891.313,1036.987z M884.463,1034.117
		c-0.281,0.01-2.464,0.069-2.648,0.069c0.041,0.243,0.442,1.979,0.497,2.219c-2.95,0.025-2.615,0.063-4.026-0.321
		C877.862,1030.986,881.49,1029.354,884.463,1034.117z M873.037,1039.046c0.335,0.037,1.439,0.134,1.753,0.176l0.015-0.069
		c-2.807-0.781-0.311-2.273,1.179-2.319c1.548-0.774,2.397,0.998,3.291,2.105c-0.184,1.347-0.314,2.625-0.406,3.903
		C876.044,1043.979,872.295,1042.458,873.037,1039.046z M871.966,1041.655c0.888,0.712,1.776,1.477,2.724,2.342
		c-0.366,1.366,0.078,3.154-1.209,4.072c-0.934,0.26-1.959,0.398-3.038,0.406c-1.241-0.45-1.814-1.722-2.709-2.671
		c0.379-1,0.752-2.117,1.232-3.107C870.171,1042.179,870.965,1042.003,871.966,1041.655z M870.244,1030.375
		c0.163,2.532-1.818,4.562-4.401,3.834C866.524,1033.046,867.978,1031.04,870.244,1030.375z M865.254,1034.193
		c1.283,5.181-3.043,5.724-4.944,4.531C861.664,1037.102,863.272,1035.732,865.254,1034.193z M859.743,1038.931
		c1.468,1.223,0.515,2.975,0.076,4.454c-0.889,1.472-2.773,1.037-4.362,1.178c-0.102-0.492-0.255-1.335-0.337-1.729
		C856.478,1041.673,858.347,1040.091,859.743,1038.931z M854.195,1044.028c1.867,1.561,0.719,3.765-0.513,5.717
		c-1.89,0.207-3.413-0.39-4.416-1.714C850.266,1047.136,852.034,1045.2,854.195,1044.028z M848.723,1048.612
		c0.027,0.03,1.175,1.325,1.401,1.577c-0.394,1.206-0.593,2.471-1.24,3.528c-1.026,0.375-2.097,0.62-3.176,0.727
		c-0.635-0.635-1.064-1.401-1.316-2.327C845.507,1051.197,847.11,1049.767,848.723,1048.612z M843.519,1053.349
		c2.012,1.078,1.451,4.726-0.589,5.464c-0.612,0.015-1.775,0.054-2.38,0.077c-0.899-1.179-0.791-1.05-1.431-1.875
		C840.526,1055.764,841.785,1054.126,843.519,1053.349z M839.065,1057.834c0.76,1.735,0.31,3.605,0.061,5.495
		c-1.202,0.123-2.304,0.26-3.367,0.413c-0.449-0.492-1.15-1.239-1.768-1.913C835.6,1060.408,836.837,1058.273,839.065,1057.834z
		 M833.592,1062.273c1.635,1.555,1.166,3.814,1.056,5.855c-2.246,0-4.226-0.22-4.485-2.372
		C831.281,1064.477,832.513,1063.291,833.592,1062.273z M829.429,1066.758c0.872,1.561,1.202,3.375,0.995,5.388
		c-0.581,0.039-1.737,0.135-2.281,0.184C827.539,1070.309,827.998,1068.334,829.429,1066.758z M758.989,1139.371
		c-2.129,1.645-5.027,1.186-6.666-1.071c0.166-1.244,0.453-3.221,0.513-3.689c0.951-0.295,2.459-0.913,3.459-0.788
		c1.171,0.681,2.112,1.469,2.801,2.35C759.115,1137.049,759.06,1137.736,758.989,1139.371z M761.017,1122.909
		c0.263,1.155-0.344,2.305-0.505,3.452c-1.638,0.463-3.444,1.677-4.837,0.276c-2.032-0.934-1.358-3.269-1.263-4.883
		c1.278-0.521,2.434-0.957,3.528-1.347C759.162,1121.239,760.233,1121.903,761.017,1122.909z M759.005,1119.243
		c0.222-1.263,0.467-2.495,0.689-3.658c1.294-0.432,3.832-1.82,5.388,0.122c1.622,0.811,0.746,3.017,0.773,4.439
		c-1.191,0.584-2.467,1.111-3.52,1.592C761.201,1121.065,760.076,1120.231,759.005,1119.243z M763.688,1133.723
		c-1.265,0.548-2.344,1.147-3.559,1.202c-1.153-0.634-1.908-1.392-2.908-2.135c0.046-1.355,0.145-2.694,0.299-3.987
		c1.336-0.374,2.544-1.158,3.857-0.911c1.02,0.568,2.106,1.623,2.946,2.464C764.086,1131.45,763.872,1132.583,763.688,1133.723z
		 M762.089,1126.743c0.04-1.394-0.089-2.593,0.551-3.605c1.207-0.74,2.62-1.117,3.62-1.477c1.128,0.829,1.567,1.17,2.924,2.166
		c-0.077,1.255-0.138,2.464-0.176,3.597c-1.376,0.576-2.629,1.462-4.049,1.301C763.945,1128.14,763.211,1127.521,762.089,1126.743z
		 M767.507,1117.261c1.125-0.62,2.296-1.163,3.467-1.63c1.022,0.842,2.206,1.59,3.038,2.686c0.221,1.117-0.328,2.279-0.52,3.36
		c-1.19,0.379-2.194,0.861-3.329,0.98c-0.934-0.436-1.845-1.018-2.709-1.737C767.076,1119.753,767.484,1118.486,767.507,1117.261z
		 M772.053,1134.864c-1,0.39-2.102,0.795-3.559,1.378c-1.117-0.819-2.552-1.301-3.237-2.495c0.099-1.047,0.389-2.545,0.605-3.513
		c4.377-1.225,2.974-1.892,6.789,1.102C772.436,1132.445,772.26,1133.547,772.053,1134.864z M776.653,1128.886
		c-1.548,1.057-3.517,1.443-4.875,0.084c-1.959-0.78-1.249-2.906-1.209-4.623c1.079-0.559,2.196-1.079,3.413-1.607
		c1.064,0.651,2.143,1.454,3.298,2.464C777.074,1126.398,777.385,1127.822,776.653,1128.886z M775.03,1121.784
		c0.163-1.5-0.438-3.555,1.355-4.079h0.015c1.751-1.348,4.037-0.181,4.998,1.515c0.055,1.093-0.049,2.103-0.138,3.536
		c-0.886,0.38-1.995,0.865-2.847,1.309C777.28,1123.422,776.14,1122.657,775.03,1121.784z M785.875,1113.205
		c-0.111,1-0.13,1.931-0.306,3c-0.775,0.968-2.069,1.195-3.199,1.76c-0.934-0.643-1.883-1.278-2.832-1.89
		c0.048-1.086-0.116-2.594,0.321-3.842c0.918-0.574,2.005-1.194,3.191-1.247C784.139,1111.579,784.955,1112.405,785.875,1113.205z
		 M789.778,1106.983c0.056,1.146-0.019,2.159-0.046,3.62c-1.66,0.873-3.378,1.948-4.653,0.352
		C780.907,1108.882,785.726,1101.223,789.778,1106.983z M781.505,1131.144c-0.972-0.383-3.995-1.821-3.061-4.362l0.008-0.008
		c0-1.92,1.788-2.024,3.214-2.824c1.396,1.036,3.894,2.07,3.122,4.339l-0.008,0.008
		C784.78,1129.983,784.067,1130.413,781.505,1131.144z M788.821,1124.027c-1.094,0.393-2.144,0.955-3.298,1.018
		c-1.148-0.635-2.227-1.286-2.847-2.311c-0.107-1.11-0.069-2.196,0.115-3.245c0.884-0.926,2.289-1.176,3.421-1.646
		c1.066,0.905,2.183,1.706,3.008,2.778C789.169,1121.621,789.005,1122.789,788.821,1124.027z M792.816,1118.18
		c-1.363,0.436-3.132,1.382-4.324,0.038c-1.959-0.979-1.365-3.174-1.27-4.975c1.018-0.497,1.936-0.949,2.893-1.385
		c1,0.739,2.25,1.475,3.038,2.648C793.286,1115.77,792.936,1117.077,792.816,1118.18z M791.179,1111.07
		c-0.723-2.448,0.324-4.921,2.946-5.349v-0.008c1.339-0.381,2.375,1.031,3.375,1.936c-0.106,1.516,0.505,3.933-1.431,4.5h-0.015
		C793.964,1113.672,791.806,1111.713,791.179,1111.07z M801.954,1101.419c-0.046,1.041-0.115,2.112-0.207,3.199
		c-0.773,1.027-2.173,1.317-3.298,1.929c-0.941-0.719-1.898-1.447-2.916-2.212c0.046-1.612,0.115-2.914,0.168-3.957
		c1.169-0.52,2.241-1.166,3.444-1.056C800.19,1099.803,801.053,1100.692,801.954,1101.419z M799.582,1097.746
		c0.521-5.463,2.776-5.57,6.115-2.786c0.421,2.462-0.648,5.041-3.329,5.258C801.503,1099.429,800.592,1098.626,799.582,1097.746z
		 M799.482,1119.419c-2.152,2.152-5.889-0.697-5.082-3.383c0-2.2,1.727-2.397,3.398-3.383c1.156,0.742,2.273,1.584,3.329,2.51
		C800.895,1116.623,801.297,1118.741,799.482,1119.419z M801.579,1113.526c-1.061-0.52-1.853-1.202-2.801-1.844
		c0-1.37-0.005-2.497,0.191-3.498c0.819-1.125,2.235-1.615,3.283-1.829c0.997,0.514,1.804,1.145,2.732,1.776
		c0.007,0.564,0.015,3.173,0.015,3.926C803.959,1112.592,802.887,1113.526,801.579,1113.526z M807.686,1101.327
		c1.522,0.761,0.904,2.966,1.01,4.27c-0.908,0.539-1.772,1.04-2.679,1.607C798.633,1102.074,805.88,1098.854,807.686,1101.327z
		 M806.462,1112.631c-0.248-1.251-0.127-2.438-0.092-4.102c0.938-0.536,1.74-1.047,2.786-1.439
		C814.612,1108.335,812.29,1117.677,806.462,1112.631z M817.253,1104.542c0.029,2.291-2.697,2.662-4.316,3.398
		c-2.6-0.737-3.623-2.964-3.038-4.133C810.178,1098.859,819.077,1100.904,817.253,1104.542z M825.388,1103.822
		c0,5.05-0.737,3.2-3.918,4.73c-1.041-0.673-1.997-1.263-2.923-1.829c0-1.964-0.206-4.382,2.066-4.722l0.008-0.008
		C822.528,1100.916,824.04,1102.753,825.388,1103.822z M821.646,1096.858c0.046,1.24,0.092,2.281,0.145,3.276
		c-1.238,0.531-2.235,1.09-3.367,1.186c-1.028-0.376-1.952-1.025-2.893-1.584c0.022-0.855,0.044-1.47,0.099-3.375
		c1.041-0.605,2.189-1.11,3.39-1.515C819.939,1095.564,820.827,1096.245,821.646,1096.858z M812.516,1089.381
		c0.819-0.429,1.791-0.934,2.794-1.416c2.001,1.603,4.047,3.37,3.084,5.924c-0.995,0.291-2.074,0.605-3.145,0.964
		c-1.018-0.704-1.921-1.324-2.763-1.89C812.485,1091.585,812.493,1090.444,812.516,1089.381z M814.245,1095.626
		c-0.058,1.194-0.052,2.264-0.245,3.299c-1.071,1.186-2.862,1.478-4.148,2.143c-1.255-0.689-2.457-1.385-3.329-2.449
		c0.551-1.552,0.541-3.759,2.579-4.064C810.405,1093.903,811.513,1093.564,814.245,1095.626z M804.533,1088.294
		c1.914-1.393,4.577-1.347,6.681,0.36c-0.205,1.758,0.251,4.173-2.028,4.477c-1.441,1.441-4.296-0.531-5.296-1.11
		C804.067,1090.881,804.266,1089.557,804.533,1088.294z M803.179,1088.73c-0.413,2.334-1.798,3.88-3.903,4.339
		c-0.681-0.49-1.37-0.957-2.051-1.408C799.21,1090.542,801.017,1089.263,803.179,1088.73z M796.36,1092.12
		c2.322,1.291,3.368,5.026,0.528,6.26h-0.008c-1.475,1.188-2.874-0.153-4.263-0.934c-0.02-0.245-0.176-1.925-0.275-3.145
		C793.772,1093.511,795.041,1092.797,796.36,1092.12z M794.347,1100.149c-0.046,1.324-0.076,2.709-0.107,3.934
		c-0.884,0.423-2.559,1.23-3.475,1.691c-0.98-0.778-1.742-1.229-2.77-2.197c-0.207-1.003-0.184-2.128,0.069-3.344
		c0.793-1.106,2.359-1.429,3.452-2.066C792.357,1098.74,793.26,1099.368,794.347,1100.149z M791.492,1094.745
		c-0.199,0.704-0.398,1.469-0.589,2.349c-1.179,0.582-2.219,1.117-3.184,1.623c-0.301-0.195-1.609-1.041-1.921-1.232
		C787.582,1096.59,789.495,1095.641,791.492,1094.745z M780.25,1100.386c1.156-0.651,2.457-1.385,3.781-2.043
		c0.906,0.349,1.8,0.709,2.702,1.079c-0.292,1.433,0.376,3.655-1.347,4.355C783.059,1105.46,779.808,1103.116,780.25,1100.386z
		 M776.576,1104.94c1.357-0.5,3.201-1.726,4.73-0.207c1.515,0.819,1.408,2.587,1.071,4.378
		C781.116,1111.01,775.429,1112.214,776.576,1104.94z M778.306,1112.103c-0.084,1.194-0.153,2.304-0.199,3.383
		c-1.713,0.999-3.481,1.799-4.883,0.398c-1.952-0.839-1.115-3.102-1.179-4.722c1.163-0.597,2.25-1.11,3.321-1.554
		C776.301,1110.381,777.296,1111.223,778.306,1112.103z M773.094,1103.501c0.381,0.219,1.686,0.956,2.013,1.14
		c-0.008,1.041-0.046,2.066-0.122,3.046c-0.643,1.179-2.101,1.359-3.321,1.982c-0.857-0.673-1.707-1.332-2.464-1.913
		c-0.33-1.356-0.216-0.935-0.475-2.005C770.056,1105.024,771.487,1104.289,773.094,1103.501z M765.135,1109.547
		c1.309-0.343,2.921-1.555,4.087-0.268c1.994,0.997,1.54,2.895,1.278,4.99c-1.002,0.783-2.402,0.946-3.459,1.378
		c-0.94-0.806-1.778-1.399-2.648-2.281C764.007,1112.102,764.818,1110.813,765.135,1109.547z M762.272,1108.498
		c0.251,0.348,0.821,1.155,1.071,1.492c-0.222,0.875-0.53,2.238-0.727,3.123c-1.364,0.455-2.317,0.81-3.299,1.018
		c-0.983-0.309-1.768-0.896-2.663-1.37c-0.044-0.212-0.407-1.935-0.459-2.151C758.412,1109.792,760.304,1109.019,762.272,1108.498z
		 M754.305,1111.261c0.237,0.719,0.467,1.416,0.712,2.135v0.008c1.368,0.684,2.481,1.153,3.153,2.166
		c-0.096,1.191-0.39,2.306-0.582,3.498c-1.385,0.505-2.832,0.857-4.301,1.056c0.008-1.462-1.056-2.357-2.158-3.138
		c0.033-0.214,0.374-2.637,0.383-2.702c0.071-0.012,3.031-0.509,3.077-0.52c-0.805-0.804-1.49-1.274-3.911-0.666
		C751.711,1112.317,752.928,1111.705,754.305,1111.261z M749.43,1128.404c0.834-0.719,1.615-1.347,2.388-1.913
		c0.002,0,1.423-0.237,1.424-0.237c0.799,0.615,2.013,1.639,2.748,2.273c-0.1,1.072-0.199,2.227-0.299,3.635
		c-1,0.324-1.887,0.556-3.367,1.072c-0.941-0.781-1.959-1.63-3.092-2.587C749.277,1130.08,749.369,1128.971,749.43,1128.404z
		 M745.229,1132.606c1-0.244,2.25-0.583,3.383-0.834c0.185,0.179,2.403,2.243,2.694,2.51c-0.102,1.071-0.131,2.508-0.673,3.75
		C748.276,1139.522,743.858,1139.454,745.229,1132.606z M739.565,1131.32c1.783-0.261,3.071-0.336,5.25-0.574
		c-0.062,0.023-1.774,0.629-1.829,0.643c0.651,1.625,0.537,3.184-0.015,4.875c-0.88,0.207-1.776,0.429-2.74,0.696
		c-0.164-0.094-1.494-0.844-1.676-0.941C738.884,1134.55,739.213,1133.019,739.565,1131.32z M738.287,1137.228
		c0.242,0.503,0.99,2.018,1.324,2.464c0.555-0.555,0.933-0.928,1.385-1.707c0.794-0.113,1.973-0.386,2.847-0.306
		c1.168,0.659,1.948,1.736,2.87,2.694c-0.207,0.957-0.421,2.013-0.643,3.214c-0.98,0.276-2.265,0.643-3.528,1.041
		c-1.566-1.421-2.773-3.194-3.138-4.11c-1,0.75-0.925,0.541-2.135,1.852C737.733,1139.932,737.971,1138.661,738.287,1137.228z
		 M970.615,949.809c31.914-0.397,23.682-3.602,33.911-4.492c-5.043,16.045,2.822-0.356-8.977,30.322
		C987.805,963.98,970.291,955.832,970.615,949.809z"/>
	<path d="M834.705,1095.953c0.415,0.17,1.188-0.244,1.11-1.04C835.575,1092.527,832.792,1095.191,834.705,1095.953z"/>
</g>
</svg>
